<?xml version="1.0" encoding="utf-8" standalone="no"?>
<!DOCTYPE svg PUBLIC "-//W3C//DTD SVG 1.1//EN"
  "http://www.w3.org/Graphics/SVG/1.1/DTD/svg11.dtd">
<svg xmlns:xlink="http://www.w3.org/1999/xlink" width="397.884012pt" height="388.108399pt" viewBox="0 0 397.884012 388.108399" xmlns="http://www.w3.org/2000/svg" version="1.1">
 <metadata>
  <rdf:RDF xmlns:dc="http://purl.org/dc/elements/1.1/" xmlns:cc="http://creativecommons.org/ns#" xmlns:rdf="http://www.w3.org/1999/02/22-rdf-syntax-ns#">
   <cc:Work>
    <dc:type rdf:resource="http://purl.org/dc/dcmitype/StillImage"/>
    <dc:date>2026-01-21T23:24:51.021406</dc:date>
    <dc:format>image/svg+xml</dc:format>
    <dc:creator>
     <cc:Agent>
      <dc:title>Matplotlib v3.10.8, https://matplotlib.org/</dc:title>
     </cc:Agent>
    </dc:creator>
   </cc:Work>
  </rdf:RDF>
 </metadata>
 <defs>
  <style type="text/css">*{stroke-linejoin: round; stroke-linecap: butt}</style>
 </defs>
 <g id="figure_1">
  <g id="patch_1">
   <path d="M 0 388.108399 
L 397.884012 388.108399 
L 397.884012 0 
L 0 0 
L 0 388.108399 
z
" style="fill: none"/>
  </g>
  <g id="patch_2">
   <path d="M 9.804012 388.08 
L 397.884012 388.08 
L 397.884012 0 
L 9.804012 0 
L 9.804012 388.08 
z
" style="fill: none"/>
  </g>
  <g id="pane3d_1">
   <g id="patch_3">
    <path d="M 209.088336 182.230178 
L 381.818341 268.126996 
L 389.705556 105.84192 
L 209.088336 27.556271 
" style="fill: #f2f2f2; opacity: 0.5; stroke: #f2f2f2; stroke-linejoin: miter"/>
   </g>
  </g>
  <g id="pane3d_2">
   <g id="patch_4">
    <path d="M 209.088336 182.230178 
L 36.358331 268.126996 
L 28.471116 105.84192 
L 209.088336 27.556271 
" style="fill: #e6e6e6; opacity: 0.5; stroke: #e6e6e6; stroke-linejoin: miter"/>
   </g>
  </g>
  <g id="pane3d_3">
   <g id="patch_5">
    <path d="M 209.088336 182.230178 
L 36.358331 268.126996 
L 209.088336 367.215038 
L 381.818341 268.126996 
" style="fill: #ececec; opacity: 0.5; stroke: #ececec; stroke-linejoin: miter"/>
   </g>
  </g>
  <g id="grid3d_1">
   <g id="Line3DCollection_1">
    <path d="M 371.563728 274.009643 
L 198.784437 187.354198 
L 198.344646 32.212952 
" style="fill: none; stroke: #b0b0b0; stroke-width: 0.8"/>
    <path d="M 353.595383 284.317337 
L 180.744798 196.325121 
L 179.525682 40.369732 
" style="fill: none; stroke: #b0b0b0; stroke-width: 0.8"/>
    <path d="M 335.339001 294.790266 
L 162.435599 205.430094 
L 160.413323 48.653678 
" style="fill: none; stroke: #b0b0b0; stroke-width: 0.8"/>
    <path d="M 316.787601 305.432436 
L 143.850752 214.672143 
L 141.000653 57.06779 
" style="fill: none; stroke: #b0b0b0; stroke-width: 0.8"/>
    <path d="M 297.933972 316.247981 
L 124.983986 224.054388 
L 121.28054 65.615158 
" style="fill: none; stroke: #b0b0b0; stroke-width: 0.8"/>
    <path d="M 278.770669 327.241173 
L 105.828836 233.580043 
L 101.24562 74.298974 
" style="fill: none; stroke: #b0b0b0; stroke-width: 0.8"/>
    <path d="M 259.289998 338.416426 
L 86.378639 243.252422 
L 80.888295 83.122531 
" style="fill: none; stroke: #b0b0b0; stroke-width: 0.8"/>
    <path d="M 239.48401 349.7783 
L 66.626526 253.074941 
L 60.200719 92.089231 
" style="fill: none; stroke: #b0b0b0; stroke-width: 0.8"/>
    <path d="M 219.344488 361.331509 
L 46.565411 263.051122 
L 39.174791 101.202583 
" style="fill: none; stroke: #b0b0b0; stroke-width: 0.8"/>
   </g>
  </g>
  <g id="grid3d_2">
   <g id="Line3DCollection_2">
    <path d="M 219.832026 32.212952 
L 219.392235 187.354198 
L 46.612944 274.009643 
" style="fill: none; stroke: #b0b0b0; stroke-width: 0.8"/>
    <path d="M 238.65099 40.369732 
L 237.431874 196.325121 
L 64.581289 284.317337 
" style="fill: none; stroke: #b0b0b0; stroke-width: 0.8"/>
    <path d="M 257.763349 48.653678 
L 255.741073 205.430094 
L 82.837671 294.790266 
" style="fill: none; stroke: #b0b0b0; stroke-width: 0.8"/>
    <path d="M 277.176019 57.06779 
L 274.325919 214.672143 
L 101.389071 305.432436 
" style="fill: none; stroke: #b0b0b0; stroke-width: 0.8"/>
    <path d="M 296.896132 65.615158 
L 293.192686 224.054388 
L 120.2427 316.247981 
" style="fill: none; stroke: #b0b0b0; stroke-width: 0.8"/>
    <path d="M 316.931052 74.298974 
L 312.347836 233.580043 
L 139.406003 327.241173 
" style="fill: none; stroke: #b0b0b0; stroke-width: 0.8"/>
    <path d="M 337.288377 83.122531 
L 331.798033 243.252422 
L 158.886674 338.416426 
" style="fill: none; stroke: #b0b0b0; stroke-width: 0.8"/>
    <path d="M 357.975953 92.089231 
L 351.550146 253.074941 
L 178.692661 349.7783 
" style="fill: none; stroke: #b0b0b0; stroke-width: 0.8"/>
    <path d="M 379.001881 101.202583 
L 371.61126 263.051122 
L 198.832184 361.331509 
" style="fill: none; stroke: #b0b0b0; stroke-width: 0.8"/>
   </g>
  </g>
  <g id="grid3d_3">
   <g id="Line3DCollection_3">
    <path d="M 36.207383 265.021143 
L 209.088336 179.261165 
L 381.969289 265.021143 
" style="fill: none; stroke: #b0b0b0; stroke-width: 0.8"/>
    <path d="M 34.744349 234.918169 
L 209.088336 150.502377 
L 383.432323 234.918169 
" style="fill: none; stroke: #b0b0b0; stroke-width: 0.8"/>
    <path d="M 33.256341 204.301344 
L 209.088336 121.285905 
L 384.920331 204.301344 
" style="fill: none; stroke: #b0b0b0; stroke-width: 0.8"/>
    <path d="M 31.742714 173.157396 
L 209.088336 91.600738 
L 386.433957 173.157396 
" style="fill: none; stroke: #b0b0b0; stroke-width: 0.8"/>
    <path d="M 30.202802 141.472596 
L 209.088336 61.435504 
L 387.97387 141.472596 
" style="fill: none; stroke: #b0b0b0; stroke-width: 0.8"/>
    <path d="M 28.635912 109.23273 
L 209.088336 30.778463 
L 389.540759 109.23273 
" style="fill: none; stroke: #b0b0b0; stroke-width: 0.8"/>
   </g>
  </g>
  <g id="axis3d_1">
   <g id="line2d_1">
    <path d="M 381.818341 268.126996 
L 209.088336 367.215038 
" style="fill: none; stroke: #000000; stroke-width: 0.8; stroke-linecap: square"/>
   </g>
   <g id="xtick_1">
    <g id="line2d_2">
     <path d="M 370.083326 273.267164 
L 374.529628 275.497156 
" style="fill: none; stroke: #000000; stroke-width: 0.8; stroke-linecap: square"/>
    </g>
    <g id="text_1">
     <!-- $\mathdefault{−10}$ -->
     <g transform="translate(370.331375 297.165187) scale(0.13 -0.13)">
      <defs>
       <path id="CMSY10-0" d="M 4218 1472 
C 4326 1472 4442 1472 4442 1600 
C 4442 1728 4326 1728 4218 1728 
L 755 1728 
C 646 1728 531 1728 531 1600 
C 531 1472 646 1472 755 1472 
L 4218 1472 
z
" transform="scale(0.015625)"/>
       <path id="CMR17-31" d="M 1702 4058 
C 1702 4192 1696 4192 1606 4192 
C 1357 3916 979 3827 621 3827 
C 602 3827 570 3827 563 3808 
C 557 3795 557 3782 557 3648 
C 755 3648 1088 3686 1344 3839 
L 1344 461 
C 1344 236 1331 160 781 160 
L 589 160 
L 589 0 
C 896 0 1216 0 1523 0 
C 1830 0 2150 0 2458 0 
L 2458 160 
L 2266 160 
C 1715 160 1702 230 1702 458 
L 1702 4058 
z
" transform="scale(0.015625)"/>
       <path id="CMR17-30" d="M 2688 2025 
C 2688 2416 2682 3080 2413 3591 
C 2176 4039 1798 4198 1466 4198 
C 1158 4198 768 4058 525 3597 
C 269 3118 243 2524 243 2025 
C 243 1661 250 1106 448 619 
C 723 -39 1216 -128 1466 -128 
C 1760 -128 2208 -7 2470 600 
C 2662 1042 2688 1559 2688 2025 
z
M 1466 -26 
C 1056 -26 813 325 723 812 
C 653 1188 653 1738 653 2096 
C 653 2588 653 2997 736 3387 
C 858 3929 1216 4096 1466 4096 
C 1728 4096 2067 3923 2189 3400 
C 2272 3036 2278 2607 2278 2096 
C 2278 1680 2278 1169 2202 792 
C 2067 95 1690 -26 1466 -26 
z
" transform="scale(0.015625)"/>
      </defs>
      <use xlink:href="#CMSY10-0" transform="scale(0.996264)"/>
      <use xlink:href="#CMR17-31" transform="translate(77.487468 0) scale(0.996264)"/>
      <use xlink:href="#CMR17-30" transform="translate(123.177945 0) scale(0.996264)"/>
     </g>
    </g>
   </g>
   <g id="xtick_2">
    <g id="line2d_3">
     <path d="M 352.11359 283.563008 
L 356.564111 285.828613 
" style="fill: none; stroke: #000000; stroke-width: 0.8; stroke-linecap: square"/>
    </g>
    <g id="text_2">
     <!-- $\mathdefault{0}$ -->
     <g transform="translate(360.622223 307.602105) scale(0.13 -0.13)">
      <use xlink:href="#CMR17-30" transform="scale(0.996264)"/>
     </g>
    </g>
   </g>
   <g id="xtick_3">
    <g id="line2d_4">
     <path d="M 333.855962 294.0238 
L 338.310267 296.32588 
" style="fill: none; stroke: #000000; stroke-width: 0.8; stroke-linecap: square"/>
    </g>
    <g id="text_3">
     <!-- $\mathdefault{10}$ -->
     <g transform="translate(339.247983 318.206599) scale(0.13 -0.13)">
      <use xlink:href="#CMR17-31" transform="scale(0.996264)"/>
      <use xlink:href="#CMR17-30" transform="translate(45.690477 0) scale(0.996264)"/>
     </g>
    </g>
   </g>
   <g id="xtick_4">
    <g id="line2d_5">
     <path d="M 315.303468 304.653537 
L 319.761098 306.992979 
" style="fill: none; stroke: #000000; stroke-width: 0.8; stroke-linecap: square"/>
    </g>
    <g id="text_4">
     <!-- $\mathdefault{20}$ -->
     <g transform="translate(320.749465 328.982736) scale(0.13 -0.13)">
      <defs>
       <path id="CMR17-32" d="M 2669 989 
L 2554 989 
C 2490 536 2438 459 2413 420 
C 2381 369 1920 369 1830 369 
L 602 369 
C 832 619 1280 1072 1824 1597 
C 2214 1967 2669 2402 2669 3035 
C 2669 3790 2067 4224 1395 4224 
C 691 4224 262 3604 262 3030 
C 262 2780 448 2748 525 2748 
C 589 2748 781 2787 781 3010 
C 781 3207 614 3264 525 3264 
C 486 3264 448 3258 422 3245 
C 544 3790 915 4058 1306 4058 
C 1862 4058 2227 3617 2227 3035 
C 2227 2479 1901 2000 1536 1584 
L 262 146 
L 262 0 
L 2515 0 
L 2669 989 
z
" transform="scale(0.015625)"/>
      </defs>
      <use xlink:href="#CMR17-32" transform="scale(0.996264)"/>
      <use xlink:href="#CMR17-30" transform="translate(45.690477 0) scale(0.996264)"/>
     </g>
    </g>
   </g>
   <g id="xtick_5">
    <g id="line2d_6">
     <path d="M 296.448907 315.456345 
L 300.90938 317.834067 
" style="fill: none; stroke: #000000; stroke-width: 0.8; stroke-linecap: square"/>
    </g>
    <g id="text_5">
     <!-- $\mathdefault{30}$ -->
     <g transform="translate(301.949089 339.934718) scale(0.13 -0.13)">
      <defs>
       <path id="CMR17-33" d="M 1414 2157 
C 1984 2157 2234 1662 2234 1090 
C 2234 320 1824 25 1453 25 
C 1114 25 563 194 390 693 
C 422 680 454 680 486 680 
C 640 680 755 782 755 948 
C 755 1133 614 1216 486 1216 
C 378 1216 211 1165 211 926 
C 211 335 787 -128 1466 -128 
C 2176 -128 2720 430 2720 1085 
C 2720 1707 2208 2157 1600 2227 
C 2086 2328 2554 2756 2554 3329 
C 2554 3820 2048 4179 1472 4179 
C 890 4179 378 3829 378 3329 
C 378 3110 544 3072 627 3072 
C 762 3072 877 3155 877 3321 
C 877 3486 762 3569 627 3569 
C 602 3569 570 3569 544 3557 
C 730 3959 1235 4032 1459 4032 
C 1683 4032 2106 3925 2106 3320 
C 2106 3143 2080 2828 1862 2550 
C 1670 2304 1453 2304 1242 2284 
C 1210 2284 1062 2269 1037 2269 
C 992 2263 966 2257 966 2208 
C 966 2163 973 2157 1101 2157 
L 1414 2157 
z
" transform="scale(0.015625)"/>
      </defs>
      <use xlink:href="#CMR17-33" transform="scale(0.996264)"/>
      <use xlink:href="#CMR17-30" transform="translate(45.690477 0) scale(0.996264)"/>
     </g>
    </g>
   </g>
   <g id="xtick_6">
    <g id="line2d_7">
     <path d="M 277.284841 326.436485 
L 281.747648 328.853434 
" style="fill: none; stroke: #000000; stroke-width: 0.8; stroke-linecap: square"/>
    </g>
    <g id="text_6">
     <!-- $\mathdefault{40}$ -->
     <g transform="translate(282.839404 351.066885) scale(0.13 -0.13)">
      <defs>
       <path id="CMR17-34" d="M 2150 4122 
C 2150 4256 2144 4256 2029 4256 
L 128 1254 
L 128 1088 
L 1779 1088 
L 1779 457 
C 1779 224 1766 160 1318 160 
L 1197 160 
L 1197 0 
C 1402 0 1747 0 1965 0 
C 2182 0 2528 0 2733 0 
L 2733 160 
L 2611 160 
C 2163 160 2150 224 2150 457 
L 2150 1088 
L 2803 1088 
L 2803 1254 
L 2150 1254 
L 2150 4122 
z
M 1798 3703 
L 1798 1254 
L 256 1254 
L 1798 3703 
z
" transform="scale(0.015625)"/>
      </defs>
      <use xlink:href="#CMR17-34" transform="scale(0.996264)"/>
      <use xlink:href="#CMR17-30" transform="translate(45.690477 0) scale(0.996264)"/>
     </g>
    </g>
   </g>
   <g id="xtick_7">
    <g id="line2d_8">
     <path d="M 257.803586 337.59836 
L 262.268193 340.055514 
" style="fill: none; stroke: #000000; stroke-width: 0.8; stroke-linecap: square"/>
    </g>
    <g id="text_7">
     <!-- $\mathdefault{50}$ -->
     <g transform="translate(263.412714 362.383721) scale(0.13 -0.13)">
      <defs>
       <path id="CMR17-35" d="M 730 3692 
C 794 3666 1056 3584 1325 3584 
C 1920 3584 2246 3911 2432 4100 
C 2432 4157 2432 4192 2394 4192 
C 2387 4192 2374 4192 2323 4163 
C 2099 4058 1837 3973 1517 3973 
C 1325 3973 1037 3999 723 4139 
C 653 4171 640 4171 634 4171 
C 602 4171 595 4164 595 4037 
L 595 2203 
C 595 2089 595 2057 659 2057 
C 691 2057 704 2070 736 2114 
C 941 2401 1222 2522 1542 2522 
C 1766 2522 2246 2382 2246 1289 
C 2246 1085 2246 715 2054 421 
C 1894 159 1645 25 1370 25 
C 947 25 518 320 403 814 
C 429 807 480 795 506 795 
C 589 795 749 840 749 1038 
C 749 1210 627 1280 506 1280 
C 358 1280 262 1190 262 1011 
C 262 454 704 -128 1382 -128 
C 2042 -128 2669 440 2669 1264 
C 2669 2030 2170 2624 1549 2624 
C 1222 2624 947 2503 730 2274 
L 730 3692 
z
" transform="scale(0.015625)"/>
      </defs>
      <use xlink:href="#CMR17-35" transform="scale(0.996264)"/>
      <use xlink:href="#CMR17-30" transform="translate(45.690477 0) scale(0.996264)"/>
     </g>
    </g>
   </g>
   <g id="xtick_8">
    <g id="line2d_9">
     <path d="M 237.997202 348.94652 
L 242.463046 351.444891 
" style="fill: none; stroke: #000000; stroke-width: 0.8; stroke-linecap: square"/>
    </g>
    <g id="text_8">
     <!-- $\mathdefault{60}$ -->
     <g transform="translate(243.661065 373.889858) scale(0.13 -0.13)">
      <defs>
       <path id="CMR17-36" d="M 678 2176 
C 678 3690 1395 4032 1811 4032 
C 1946 4032 2272 4009 2400 3776 
C 2298 3776 2106 3776 2106 3553 
C 2106 3381 2246 3323 2336 3323 
C 2394 3323 2566 3348 2566 3560 
C 2566 3954 2246 4179 1805 4179 
C 1043 4179 243 3390 243 1984 
C 243 253 966 -128 1478 -128 
C 2099 -128 2688 427 2688 1283 
C 2688 2081 2170 2662 1517 2662 
C 1126 2662 838 2407 678 1960 
L 678 2176 
z
M 1478 25 
C 691 25 691 1200 691 1436 
C 691 1896 909 2560 1504 2560 
C 1613 2560 1926 2560 2138 2120 
C 2253 1870 2253 1609 2253 1289 
C 2253 944 2253 690 2118 434 
C 1978 171 1773 25 1478 25 
z
" transform="scale(0.015625)"/>
      </defs>
      <use xlink:href="#CMR17-36" transform="scale(0.996264)"/>
      <use xlink:href="#CMR17-30" transform="translate(45.690477 0) scale(0.996264)"/>
     </g>
    </g>
   </g>
   <g id="xtick_9">
    <g id="line2d_10">
     <path d="M 217.857479 360.485667 
L 222.32397 363.026301 
" style="fill: none; stroke: #000000; stroke-width: 0.8; stroke-linecap: square"/>
    </g>
    <g id="text_9">
     <!-- $\mathdefault{70}$ -->
     <g transform="translate(223.576234 385.590087) scale(0.13 -0.13)">
      <defs>
       <path id="CMR17-37" d="M 2886 3941 
L 2886 4081 
L 1382 4081 
C 634 4081 621 4165 595 4288 
L 480 4288 
L 294 3094 
L 410 3094 
C 429 3215 474 3540 550 3661 
C 589 3712 1062 3712 1171 3712 
L 2579 3712 
L 1869 2661 
C 1395 1954 1069 999 1069 165 
C 1069 89 1069 -128 1299 -128 
C 1530 -128 1530 89 1530 171 
L 1530 465 
C 1530 1508 1709 2196 2003 2636 
L 2886 3941 
z
" transform="scale(0.015625)"/>
      </defs>
      <use xlink:href="#CMR17-37" transform="scale(0.996264)"/>
      <use xlink:href="#CMR17-30" transform="translate(45.690477 0) scale(0.996264)"/>
     </g>
    </g>
   </g>
   <g id="text_10">
    <!-- $\lambda_1$ -->
    <g transform="translate(317.580386 353.638167) rotate(-29.841106) scale(0.13 -0.13)">
     <defs>
      <path id="CMMI12-15" d="M 1978 3965 
C 1818 4416 1312 4416 1229 4416 
C 1190 4416 1120 4416 1120 4352 
C 1120 4302 1158 4295 1190 4289 
C 1286 4276 1363 4263 1466 4080 
C 1530 3959 2189 2059 2189 2046 
C 2189 2040 2182 2033 2131 1982 
L 467 311 
C 390 234 339 183 339 102 
C 339 12 416 -64 518 -64 
C 544 -64 614 -51 653 -13 
C 755 82 1670 1194 2253 1881 
C 2419 1383 2624 797 2822 261 
C 2854 166 2886 76 2976 -6 
C 3040 -64 3053 -64 3232 -64 
L 3354 -64 
C 3379 -64 3424 -64 3424 -13 
C 3424 13 3418 19 3392 45 
C 3334 115 3290 229 3264 306 
L 1978 3965 
z
" transform="scale(0.015625)"/>
     </defs>
     <use xlink:href="#CMMI12-15" transform="scale(0.996264)"/>
     <use xlink:href="#CMR17-31" transform="translate(56.904072 -14.943915) scale(0.697382)"/>
    </g>
   </g>
  </g>
  <g id="axis3d_2">
   <g id="line2d_11">
    <path d="M 36.358331 268.126996 
L 209.088336 367.215038 
" style="fill: none; stroke: #000000; stroke-width: 0.8; stroke-linecap: square"/>
   </g>
   <g id="xtick_10">
    <g id="line2d_12">
     <path d="M 48.093346 273.267164 
L 43.647044 275.497156 
" style="fill: none; stroke: #000000; stroke-width: 0.8; stroke-linecap: square"/>
    </g>
    <g id="text_11">
     <!-- $\mathdefault{−10}$ -->
     <g transform="translate(25.090448 297.165187) scale(0.13 -0.13)">
      <use xlink:href="#CMSY10-0" transform="scale(0.996264)"/>
      <use xlink:href="#CMR17-31" transform="translate(77.487468 0) scale(0.996264)"/>
      <use xlink:href="#CMR17-30" transform="translate(123.177945 0) scale(0.996264)"/>
     </g>
    </g>
   </g>
   <g id="xtick_11">
    <g id="line2d_13">
     <path d="M 66.063082 283.563008 
L 61.612561 285.828613 
" style="fill: none; stroke: #000000; stroke-width: 0.8; stroke-linecap: square"/>
    </g>
    <g id="text_12">
     <!-- $\mathdefault{0}$ -->
     <g transform="translate(51.21371 307.602105) scale(0.13 -0.13)">
      <use xlink:href="#CMR17-30" transform="scale(0.996264)"/>
     </g>
    </g>
   </g>
   <g id="xtick_12">
    <g id="line2d_14">
     <path d="M 84.32071 294.0238 
L 79.866405 296.32588 
" style="fill: none; stroke: #000000; stroke-width: 0.8; stroke-linecap: square"/>
    </g>
    <g id="text_13">
     <!-- $\mathdefault{10}$ -->
     <g transform="translate(66.24721 318.206599) scale(0.13 -0.13)">
      <use xlink:href="#CMR17-31" transform="scale(0.996264)"/>
      <use xlink:href="#CMR17-30" transform="translate(45.690477 0) scale(0.996264)"/>
     </g>
    </g>
   </g>
   <g id="xtick_13">
    <g id="line2d_15">
     <path d="M 102.873204 304.653537 
L 98.415574 306.992979 
" style="fill: none; stroke: #000000; stroke-width: 0.8; stroke-linecap: square"/>
    </g>
    <g id="text_14">
     <!-- $\mathdefault{20}$ -->
     <g transform="translate(84.745728 328.982736) scale(0.13 -0.13)">
      <use xlink:href="#CMR17-32" transform="scale(0.996264)"/>
      <use xlink:href="#CMR17-30" transform="translate(45.690477 0) scale(0.996264)"/>
     </g>
    </g>
   </g>
   <g id="xtick_14">
    <g id="line2d_16">
     <path d="M 121.727764 315.456345 
L 117.267292 317.834067 
" style="fill: none; stroke: #000000; stroke-width: 0.8; stroke-linecap: square"/>
    </g>
    <g id="text_15">
     <!-- $\mathdefault{30}$ -->
     <g transform="translate(103.546104 339.934718) scale(0.13 -0.13)">
      <use xlink:href="#CMR17-33" transform="scale(0.996264)"/>
      <use xlink:href="#CMR17-30" transform="translate(45.690477 0) scale(0.996264)"/>
     </g>
    </g>
   </g>
   <g id="xtick_15">
    <g id="line2d_17">
     <path d="M 140.89183 326.436485 
L 136.429024 328.853434 
" style="fill: none; stroke: #000000; stroke-width: 0.8; stroke-linecap: square"/>
    </g>
    <g id="text_16">
     <!-- $\mathdefault{40}$ -->
     <g transform="translate(122.655789 351.066885) scale(0.13 -0.13)">
      <use xlink:href="#CMR17-34" transform="scale(0.996264)"/>
      <use xlink:href="#CMR17-30" transform="translate(45.690477 0) scale(0.996264)"/>
     </g>
    </g>
   </g>
   <g id="xtick_16">
    <g id="line2d_18">
     <path d="M 160.373085 337.59836 
L 155.908479 340.055514 
" style="fill: none; stroke: #000000; stroke-width: 0.8; stroke-linecap: square"/>
    </g>
    <g id="text_17">
     <!-- $\mathdefault{50}$ -->
     <g transform="translate(142.082479 362.383721) scale(0.13 -0.13)">
      <use xlink:href="#CMR17-35" transform="scale(0.996264)"/>
      <use xlink:href="#CMR17-30" transform="translate(45.690477 0) scale(0.996264)"/>
     </g>
    </g>
   </g>
   <g id="xtick_17">
    <g id="line2d_19">
     <path d="M 180.17947 348.94652 
L 175.713626 351.444891 
" style="fill: none; stroke: #000000; stroke-width: 0.8; stroke-linecap: square"/>
    </g>
    <g id="text_18">
     <!-- $\mathdefault{60}$ -->
     <g transform="translate(161.834128 373.889858) scale(0.13 -0.13)">
      <use xlink:href="#CMR17-36" transform="scale(0.996264)"/>
      <use xlink:href="#CMR17-30" transform="translate(45.690477 0) scale(0.996264)"/>
     </g>
    </g>
   </g>
   <g id="xtick_18">
    <g id="line2d_20">
     <path d="M 200.319192 360.485667 
L 195.852702 363.026301 
" style="fill: none; stroke: #000000; stroke-width: 0.8; stroke-linecap: square"/>
    </g>
    <g id="text_19">
     <!-- $\mathdefault{70}$ -->
     <g transform="translate(181.918959 385.590087) scale(0.13 -0.13)">
      <use xlink:href="#CMR17-37" transform="scale(0.996264)"/>
      <use xlink:href="#CMR17-30" transform="translate(45.690477 0) scale(0.996264)"/>
     </g>
    </g>
   </g>
   <g id="text_20">
    <!-- $\lambda_0$ -->
    <g transform="translate(90.138476 347.638955) rotate(-330.158894) scale(0.13 -0.13)">
     <use xlink:href="#CMMI12-15" transform="scale(0.996264)"/>
     <use xlink:href="#CMR17-30" transform="translate(56.904072 -14.943915) scale(0.697382)"/>
    </g>
   </g>
  </g>
  <g id="axis3d_3">
   <g id="line2d_21">
    <path d="M 36.358331 268.126996 
L 28.471116 105.84192 
" style="fill: none; stroke: #000000; stroke-width: 0.8; stroke-linecap: square"/>
   </g>
   <g id="xtick_19">
    <g id="line2d_22">
     <path d="M 37.688296 264.286516 
L 33.240478 266.492918 
" style="fill: none; stroke: #000000; stroke-width: 0.8; stroke-linecap: square"/>
    </g>
    <g id="text_21">
     <!-- $\mathdefault{0.5}$ -->
     <g transform="translate(8.433036 274.015172) scale(0.13 -0.13)">
      <defs>
       <path id="CMMI12-3a" d="M 1178 307 
C 1178 492 1024 619 870 619 
C 685 619 557 466 557 313 
C 557 128 710 0 864 0 
C 1050 0 1178 153 1178 307 
z
" transform="scale(0.015625)"/>
      </defs>
      <use xlink:href="#CMR17-30" transform="scale(0.996264)"/>
      <use xlink:href="#CMMI12-3a" transform="translate(45.690477 0) scale(0.996264)"/>
      <use xlink:href="#CMR17-35" transform="translate(72.787654 0) scale(0.996264)"/>
     </g>
    </g>
   </g>
   <g id="xtick_20">
    <g id="line2d_23">
     <path d="M 36.238629 234.194652 
L 31.75062 236.367706 
" style="fill: none; stroke: #000000; stroke-width: 0.8; stroke-linecap: square"/>
    </g>
    <g id="text_22">
     <!-- $\mathdefault{0.6}$ -->
     <g transform="translate(6.803521 243.912197) scale(0.13 -0.13)">
      <use xlink:href="#CMR17-30" transform="scale(0.996264)"/>
      <use xlink:href="#CMMI12-3a" transform="translate(45.690477 0) scale(0.996264)"/>
      <use xlink:href="#CMR17-36" transform="translate(72.787654 0) scale(0.996264)"/>
     </g>
    </g>
   </g>
   <g id="xtick_21">
    <g id="line2d_24">
     <path d="M 34.764231 203.589425 
L 30.235301 205.727665 
" style="fill: none; stroke: #000000; stroke-width: 0.8; stroke-linecap: square"/>
    </g>
    <g id="text_23">
     <!-- $\mathdefault{0.7}$ -->
     <g transform="translate(5.146192 213.295372) scale(0.13 -0.13)">
      <use xlink:href="#CMR17-30" transform="scale(0.996264)"/>
      <use xlink:href="#CMMI12-3a" transform="translate(45.690477 0) scale(0.996264)"/>
      <use xlink:href="#CMR17-37" transform="translate(72.787654 0) scale(0.996264)"/>
     </g>
    </g>
   </g>
   <g id="xtick_22">
    <g id="line2d_25">
     <path d="M 33.264463 172.457583 
L 28.693862 174.559484 
" style="fill: none; stroke: #000000; stroke-width: 0.8; stroke-linecap: square"/>
    </g>
    <g id="text_24">
     <!-- $\mathdefault{0.8}$ -->
     <g transform="translate(3.460328 182.151424) scale(0.13 -0.13)">
      <defs>
       <path id="CMR17-38" d="M 1741 2264 
C 2144 2467 2554 2773 2554 3263 
C 2554 3841 1990 4179 1472 4179 
C 890 4179 378 3759 378 3180 
C 378 3021 416 2747 666 2505 
C 730 2442 998 2251 1171 2130 
C 883 1983 211 1634 211 934 
C 211 279 838 -128 1459 -128 
C 2144 -128 2720 362 2720 1010 
C 2720 1590 2330 1857 2074 2029 
L 1741 2264 
z
M 902 2822 
C 851 2854 595 3051 595 3351 
C 595 3739 998 4032 1459 4032 
C 1965 4032 2336 3676 2336 3262 
C 2336 2669 1670 2331 1638 2331 
C 1632 2331 1626 2331 1574 2370 
L 902 2822 
z
M 2080 1519 
C 2176 1449 2483 1240 2483 851 
C 2483 381 2010 25 1472 25 
C 890 25 448 438 448 940 
C 448 1443 838 1862 1280 2060 
L 2080 1519 
z
" transform="scale(0.015625)"/>
      </defs>
      <use xlink:href="#CMR17-30" transform="scale(0.996264)"/>
      <use xlink:href="#CMMI12-3a" transform="translate(45.690477 0) scale(0.996264)"/>
      <use xlink:href="#CMR17-38" transform="translate(72.787654 0) scale(0.996264)"/>
     </g>
    </g>
   </g>
   <g id="xtick_23">
    <g id="line2d_26">
     <path d="M 31.738666 140.785419 
L 27.125623 142.849389 
" style="fill: none; stroke: #000000; stroke-width: 0.8; stroke-linecap: square"/>
    </g>
    <g id="text_25">
     <!-- $\mathdefault{0.9}$ -->
     <g transform="translate(1.745187 150.466624) scale(0.13 -0.13)">
      <defs>
       <path id="CMR17-39" d="M 2253 1864 
C 2253 464 1670 31 1190 31 
C 1043 31 685 31 538 294 
C 704 268 826 357 826 518 
C 826 692 685 749 595 749 
C 538 749 365 723 365 506 
C 365 71 742 -128 1203 -128 
C 1939 -128 2688 674 2688 2073 
C 2688 3817 1971 4179 1485 4179 
C 851 4179 243 3628 243 2778 
C 243 1991 762 1408 1414 1408 
C 1952 1408 2189 1903 2253 2112 
L 2253 1864 
z
M 1427 1510 
C 1254 1510 1011 1542 813 1922 
C 678 2169 678 2461 678 2771 
C 678 3146 678 3405 858 3684 
C 947 3817 1114 4032 1485 4032 
C 2240 4032 2240 2885 2240 2632 
C 2240 2182 2035 1510 1427 1510 
z
" transform="scale(0.015625)"/>
      </defs>
      <use xlink:href="#CMR17-30" transform="scale(0.996264)"/>
      <use xlink:href="#CMMI12-3a" transform="translate(45.690477 0) scale(0.996264)"/>
      <use xlink:href="#CMR17-39" transform="translate(72.787654 0) scale(0.996264)"/>
     </g>
    </g>
   </g>
   <g id="xtick_24">
    <g id="line2d_27">
     <path d="M 30.186154 108.55874 
L 25.529878 110.583123 
" style="fill: none; stroke: #000000; stroke-width: 0.8; stroke-linecap: square"/>
    </g>
    <g id="text_26">
     <!-- $\mathdefault{1.0}$ -->
     <g transform="translate(0 118.226758) scale(0.13 -0.13)">
      <use xlink:href="#CMR17-31" transform="scale(0.996264)"/>
      <use xlink:href="#CMMI12-3a" transform="translate(45.690477 0) scale(0.996264)"/>
      <use xlink:href="#CMR17-30" transform="translate(72.787654 0) scale(0.996264)"/>
     </g>
    </g>
   </g>
   <g id="text_27">
    <!-- $\bar{n}/n$ -->
    <g transform="translate(-14.934935 178.225251) rotate(-272.782442) scale(0.13 -0.13)">
     <defs>
      <path id="CMR17-16" d="M 2554 3520 
L 2554 3666 
L 378 3666 
L 378 3520 
L 2554 3520 
z
" transform="scale(0.015625)"/>
      <path id="CMMI12-6e" d="M 1318 1871 
C 1331 1910 1491 2229 1728 2433 
C 1894 2586 2112 2689 2362 2689 
C 2618 2689 2707 2497 2707 2242 
C 2707 1878 2445 1150 2317 805 
C 2259 651 2227 568 2227 453 
C 2227 166 2426 -64 2733 -64 
C 3328 -64 3552 875 3552 913 
C 3552 945 3526 971 3488 971 
C 3430 971 3424 952 3392 843 
C 3245 319 3002 64 2752 64 
C 2688 64 2586 64 2586 269 
C 2586 429 2656 621 2694 710 
C 2822 1063 3091 1780 3091 2145 
C 3091 2528 2867 2816 2381 2816 
C 1811 2816 1510 2415 1395 2255 
C 1376 2618 1114 2816 832 2816 
C 627 2816 486 2695 378 2478 
C 262 2248 173 1865 173 1839 
C 173 1814 198 1782 243 1782 
C 294 1782 301 1788 339 1935 
C 442 2325 557 2689 813 2689 
C 960 2689 1011 2586 1011 2395 
C 1011 2254 947 2005 902 1807 
L 723 1118 
C 698 996 627 709 595 594 
C 550 428 480 128 480 96 
C 480 6 550 -64 646 -64 
C 723 -64 813 -26 864 70 
C 877 102 934 326 966 453 
L 1107 1028 
L 1318 1871 
z
" transform="scale(0.015625)"/>
      <path id="CMMI12-3d" d="M 2746 4562 
C 2746 4569 2784 4666 2784 4678 
C 2784 4755 2720 4800 2669 4800 
C 2637 4800 2579 4800 2528 4659 
L 384 -1363 
C 384 -1370 346 -1465 346 -1478 
C 346 -1555 410 -1600 461 -1600 
C 499 -1600 557 -1593 602 -1459 
L 2746 4562 
z
" transform="scale(0.015625)"/>
     </defs>
     <use xlink:href="#CMR17-16" transform="translate(6.269793 0.006461) scale(0.996264)"/>
     <use xlink:href="#CMMI12-6e" transform="scale(0.996264)"/>
     <use xlink:href="#CMMI12-3d" transform="translate(58.230047 0) scale(0.996264)"/>
     <use xlink:href="#CMMI12-6e" transform="translate(107.004966 0) scale(0.996264)"/>
    </g>
   </g>
  </g>
  <g id="axes_1">
   <g id="Line3DCollection_4">
    <path d="M 209.088336 47.914284 
L 106.2075 93.37101 
L 105.970131 103.282606 
L 105.694589 129.95571 
L 105.288986 151.547993 
L 104.778015 169.070598 
L 104.181361 183.322492 
L 103.514821 194.939064 
L 102.791145 204.428224 
L 102.020666 212.197638 
L 101.211788 218.575546 
L 100.371363 223.826885 
L 99.504989 228.165881 
L 98.617245 231.765986 
L 97.711882 234.76776 
L 96.79197 237.285172 
L 95.390205 240.350434 
L 93.967927 242.771519 
L 92.530078 244.724927 
L 91.080317 246.339406 
L 89.133341 248.123118 
L 87.174454 249.622984 
L 84.71359 251.24901 
L 81.251746 253.265313 
L 75.783323 256.166797 
L 62.752693 262.745988 
L 58.210378 265.020315 
L 58.210378 265.020315 
" clip-path="url(#p81daae1e20)" style="fill: none; stroke: #1f77b4; stroke-width: 1.5"/>
    <path d="M 212.351331 49.356001 
L 109.464794 94.937886 
L 109.21927 104.859606 
L 108.921691 131.55932 
L 108.498303 153.172933 
L 107.972954 170.712768 
L 107.364662 184.978678 
L 106.688691 196.606734 
L 105.957367 206.105368 
L 105.180681 213.882656 
L 104.366761 220.267158 
L 103.522238 225.524065 
L 102.65253 229.867806 
L 101.762071 233.471993 
L 100.854492 236.477315 
L 99.93277 238.997845 
L 98.528883 242.067157 
L 97.105021 244.491726 
L 95.665977 246.448208 
L 94.215302 248.065465 
L 92.267413 249.852562 
L 90.307847 251.355569 
L 87.846339 252.985309 
L 84.383798 255.006599 
L 78.914484 257.915715 
L 65.881877 264.512855 
L 61.338846 266.793442 
L 61.338846 266.793442 
" clip-path="url(#p81daae1e20)" style="fill: none; stroke: #1f77b4; stroke-width: 1.5"/>
    <path d="M 215.623128 50.801607 
L 112.731251 96.50917 
L 112.477526 106.44103 
L 112.157788 133.1674 
L 111.716517 154.802379 
L 111.176713 172.359471 
L 110.55672 186.639421 
L 109.87127 198.278979 
L 109.132258 207.787105 
L 108.349334 215.572279 
L 107.530348 221.963388 
L 106.681708 227.225875 
L 105.808651 231.57437 
L 104.915464 235.182648 
L 104.005661 238.191527 
L 103.082122 240.715183 
L 101.676107 243.788555 
L 100.250657 246.216617 
L 98.810417 248.176182 
L 97.358828 249.796226 
L 95.410029 251.58672 
L 93.449789 253.09288 
L 90.98764 254.72635 
L 87.524414 256.752645 
L 82.054224 259.669425 
L 69.019678 266.284586 
L 64.475943 268.571461 
L 64.475943 268.571461 
" clip-path="url(#p81daae1e20)" style="fill: none; stroke: #1f77b4; stroke-width: 1.5"/>
    <path d="M 218.903765 52.251119 
L 116.006908 98.084879 
L 115.744937 108.026898 
L 115.402917 134.779968 
L 114.943665 156.436347 
L 114.389328 174.010726 
L 113.757572 188.30474 
L 113.062593 199.95582 
L 112.315854 209.473452 
L 111.52666 217.266528 
L 110.702584 223.664256 
L 109.849807 228.932332 
L 108.973385 233.285592 
L 108.07746 236.89797 
L 107.165424 239.910413 
L 106.240062 242.437203 
L 104.831912 245.514647 
L 103.404871 247.946211 
L 101.963433 249.908869 
L 100.510932 251.531711 
L 98.561225 253.325613 
L 96.600313 254.834937 
L 94.137531 256.47215 
L 90.673627 258.503472 
L 85.202578 261.427946 
L 72.166131 268.061204 
L 67.621706 270.35439 
L 67.621706 270.35439 
" clip-path="url(#p81daae1e20)" style="fill: none; stroke: #1f77b4; stroke-width: 1.5"/>
    <path d="M 222.193276 53.704552 
L 119.291805 99.665033 
L 119.021542 109.617229 
L 118.657116 136.397043 
L 118.179785 158.074859 
L 117.610836 175.666551 
L 116.967255 189.974652 
L 116.262696 201.637273 
L 115.508191 211.164429 
L 114.712696 218.965421 
L 113.883504 225.36978 
L 113.026571 230.643457 
L 112.14677 235.001491 
L 111.248094 238.617977 
L 110.333817 241.633994 
L 109.406625 244.163925 
L 107.996333 247.245451 
L 106.567697 249.680529 
L 105.125061 251.646289 
L 103.671648 253.271937 
L 101.721036 255.06926 
L 99.759455 256.581759 
L 97.296045 258.222731 
L 93.831474 260.259098 
L 88.35958 263.191298 
L 75.321271 269.842727 
L 70.776171 272.142252 
L 70.776171 272.142252 
" clip-path="url(#p81daae1e20)" style="fill: none; stroke: #1f77b4; stroke-width: 1.5"/>
    <path d="M 225.491697 55.161922 
L 122.585981 101.24965 
L 122.307381 111.21204 
L 121.920424 138.018644 
L 121.424914 159.717932 
L 120.841273 177.326967 
L 120.185805 191.649177 
L 119.471616 203.32336 
L 118.709305 212.860055 
L 117.907477 220.668977 
L 117.073144 227.079979 
L 116.212035 232.359269 
L 115.32884 236.722086 
L 114.427402 240.34269 
L 113.510874 243.362288 
L 112.581845 245.895368 
L 111.169406 248.980987 
L 109.739173 251.419588 
L 108.295337 253.388461 
L 106.841012 255.016923 
L 104.889496 256.817679 
L 102.927252 258.333367 
L 100.463218 259.97811 
L 96.997989 262.019543 
L 91.525268 264.959501 
L 78.485136 271.629175 
L 73.939373 273.935066 
L 73.939373 273.935066 
" clip-path="url(#p81daae1e20)" style="fill: none; stroke: #1f77b4; stroke-width: 1.5"/>
    <path d="M 228.799066 56.623244 
L 125.889474 102.838749 
L 125.602491 112.811351 
L 125.192878 139.64479 
L 124.67909 161.365584 
L 124.080678 178.991991 
L 123.413258 193.328335 
L 122.689389 205.014097 
L 121.919231 214.560349 
L 121.111039 222.377215 
L 120.27154 228.794872 
L 119.406236 234.079785 
L 118.519631 238.447396 
L 117.615419 242.072127 
L 116.696632 245.095314 
L 115.76576 247.631552 
L 114.351167 250.721274 
L 112.919332 253.163409 
L 111.474295 255.135403 
L 110.019058 256.766691 
L 108.066642 258.570891 
L 106.103737 260.089778 
L 103.639087 261.738309 
L 100.173209 263.784828 
L 94.699676 266.732574 
L 81.657761 273.42057 
L 77.111349 275.732852 
L 77.111349 275.732852 
" clip-path="url(#p81daae1e20)" style="fill: none; stroke: #1f77b4; stroke-width: 1.5"/>
    <path d="M 232.115417 58.088534 
L 129.202325 104.432348 
L 128.906912 114.41518 
L 128.474517 141.275498 
L 127.942351 163.017835 
L 127.329088 180.661641 
L 126.649652 195.012141 
L 125.916052 206.709504 
L 125.138007 216.265328 
L 124.323418 224.090153 
L 123.478728 230.514478 
L 122.609209 235.805025 
L 121.719178 240.177439 
L 120.81218 243.806306 
L 119.891125 246.833091 
L 118.958404 249.372493 
L 117.54165 252.46633 
L 116.10821 254.912009 
L 114.661971 256.887135 
L 113.205824 258.521256 
L 111.252508 260.328914 
L 109.288947 261.851012 
L 106.823687 263.503344 
L 103.357169 265.554969 
L 97.88284 268.510536 
L 84.839183 275.21693 
L 80.292136 277.53563 
L 80.292136 277.53563 
" clip-path="url(#p81daae1e20)" style="fill: none; stroke: #1f77b4; stroke-width: 1.5"/>
    <path d="M 235.440789 59.557801 
L 132.524574 106.030459 
L 132.220684 116.023539 
L 131.76538 142.910782 
L 131.214734 164.674697 
L 130.58654 182.335932 
L 129.895024 196.700612 
L 129.151641 208.409594 
L 128.365669 217.975007 
L 127.544651 225.807804 
L 126.694745 232.23881 
L 125.82099 237.535002 
L 124.927519 241.91223 
L 124.017723 245.545241 
L 123.09439 248.575633 
L 122.159813 251.118208 
L 120.740892 254.21617 
L 119.305844 256.665403 
L 117.858401 258.64367 
L 116.401344 260.280635 
L 114.447132 262.091762 
L 112.482918 263.617083 
L 110.017053 265.273231 
L 106.549905 267.329983 
L 101.074798 270.293403 
L 88.029438 277.01827 
L 83.48177 279.343415 
L 83.48177 279.343415 
" clip-path="url(#p81daae1e20)" style="fill: none; stroke: #1f77b4; stroke-width: 1.5"/>
    <path d="M 238.775217 61.031046 
L 135.856259 107.633085 
L 135.543846 117.636432 
L 135.065505 144.550645 
L 134.496278 166.336174 
L 133.853071 184.014866 
L 133.14941 198.39375 
L 132.396194 210.11437 
L 131.602253 219.689389 
L 130.774773 227.530173 
L 129.919625 233.967872 
L 129.041616 239.26972 
L 128.144688 243.651771 
L 127.232082 247.288936 
L 126.306463 250.322943 
L 125.370023 252.868699 
L 123.948928 255.970797 
L 122.512268 258.423595 
L 121.063621 260.405013 
L 119.605654 262.044831 
L 117.650549 263.859439 
L 115.685686 265.387995 
L 113.219222 267.047975 
L 109.751454 269.109874 
L 104.275584 272.081178 
L 91.228562 278.824596 
L 86.680288 281.156212 
L 86.680288 281.156212 
" clip-path="url(#p81daae1e20)" style="fill: none; stroke: #1f77b4; stroke-width: 1.5"/>
    <path d="M 242.11874 62.508236 
L 139.197421 109.240194 
L 138.876437 119.253826 
L 138.374931 146.195055 
L 137.787019 168.002235 
L 137.128718 185.698413 
L 136.412848 200.091525 
L 135.649747 211.823804 
L 134.847796 221.408446 
L 134.013822 229.257231 
L 133.153406 235.701635 
L 132.271121 241.009151 
L 131.370721 245.396036 
L 130.455294 249.037364 
L 129.527379 252.074994 
L 128.589069 254.623938 
L 127.165794 257.730184 
L 125.727519 260.186557 
L 124.277667 262.171136 
L 122.81879 263.813816 
L 120.862793 265.631918 
L 118.897285 267.163721 
L 116.430228 268.827547 
L 112.96185 270.894614 
L 107.485234 273.873835 
L 94.436592 280.63588 
L 89.887724 282.973995 
L 89.887724 282.973995 
" clip-path="url(#p81daae1e20)" style="fill: none; stroke: #1f77b4; stroke-width: 1.5"/>
    <path d="M 245.471397 63.989249 
L 142.548097 110.851666 
L 142.218495 120.875602 
L 141.693694 147.843895 
L 141.086996 169.672763 
L 140.413518 187.386459 
L 139.685373 201.793822 
L 138.912334 213.537781 
L 138.102332 223.132064 
L 137.261831 230.988865 
L 136.396122 237.439988 
L 135.509541 242.753183 
L 134.605653 247.144912 
L 133.687392 250.790413 
L 132.757172 253.831675 
L 131.816985 256.383815 
L 130.391524 259.49422 
L 128.95163 261.954178 
L 127.500571 263.941928 
L 126.040785 265.587481 
L 124.0839 267.409089 
L 122.11775 268.944151 
L 119.650106 270.611838 
L 116.181128 272.684092 
L 110.703783 275.671263 
L 97.653559 282.452012 
L 93.104114 284.796653 
L 93.104114 284.796653 
" clip-path="url(#p81daae1e20)" style="fill: none; stroke: #1f77b4; stroke-width: 1.5"/>
    <path d="M 248.833228 65.473755 
L 145.908323 112.46716 
L 145.570055 122.501421 
L 145.021829 149.496832 
L 144.39624 171.347431 
L 143.707504 189.078677 
L 142.967018 203.500322 
L 142.183988 215.255983 
L 141.365893 224.859925 
L 140.518832 232.724759 
L 139.647803 239.182615 
L 138.756906 244.501501 
L 137.849514 248.898085 
L 136.928406 252.547768 
L 135.995873 255.592671 
L 135.053803 258.148017 
L 133.626147 261.262593 
L 132.184631 263.726147 
L 130.732363 265.717078 
L 129.271669 267.365512 
L 127.313897 269.190639 
L 125.34711 270.728973 
L 122.878885 272.400535 
L 119.409316 274.477998 
L 113.931257 277.47315 
L 100.879493 284.27268 
L 96.329483 286.623873 
L 96.329483 286.623873 
" clip-path="url(#p81daae1e20)" style="fill: none; stroke: #1f77b4; stroke-width: 1.5"/>
    <path d="M 252.204283 66.960955 
L 149.278128 114.085857 
L 148.931146 124.130468 
L 148.359364 151.153062 
L 147.71478 173.025443 
L 147.010701 190.774282 
L 146.257807 205.21024 
L 145.464734 216.977631 
L 144.638503 226.591255 
L 143.78485 234.464142 
L 142.908474 240.928748 
L 142.01324 246.253339 
L 141.102328 250.654791 
L 140.178361 254.308668 
L 139.243504 257.357223 
L 138.299543 259.915783 
L 136.869687 263.034541 
L 135.426544 265.501703 
L 133.973067 267.495825 
L 132.511464 269.147151 
L 130.552807 270.975809 
L 128.585385 272.517426 
L 126.116585 274.192878 
L 122.646433 276.27557 
L 117.167677 279.278734 
L 104.114409 286.097119 
L 99.563847 288.454891 
L 99.563847 288.454891 
" clip-path="url(#p81daae1e20)" style="fill: none; stroke: #1f77b4; stroke-width: 1.5"/>
    <path d="M 255.584625 68.449098 
L 152.657529 115.705956 
L 152.301784 125.760952 
L 151.706313 152.81082 
L 151.042629 174.705055 
L 150.323123 192.471544 
L 149.557755 206.921862 
L 148.754586 218.701022 
L 147.920177 228.32436 
L 147.059895 236.205325 
L 146.178146 242.676702 
L 145.278553 248.007018 
L 144.364105 252.413354 
L 143.437266 256.071438 
L 142.500076 259.123656 
L 141.554216 261.685441 
L 140.12215 264.808397 
L 138.677377 267.279178 
L 137.222687 269.276503 
L 135.760175 270.930731 
L 133.800634 272.762931 
L 131.83258 274.307843 
L 129.363209 275.987199 
L 125.892481 278.075139 
L 120.413039 281.086344 
L 107.358299 287.923653 
L 102.807196 290.288028 
L 102.807196 290.288028 
" clip-path="url(#p81daae1e20)" style="fill: none; stroke: #1f77b4; stroke-width: 1.5"/>
    <path d="M 258.974348 69.93469 
L 156.046524 117.323858 
L 155.681967 127.389293 
L 155.062675 154.466576 
L 154.379784 176.382777 
L 153.644767 194.167006 
L 152.866856 208.631758 
L 152.053535 220.422745 
L 151.210904 230.055845 
L 150.34396 237.944928 
L 149.456809 244.423109 
L 148.552835 249.759176 
L 147.634832 254.170418 
L 146.705108 257.832729 
L 145.765572 260.888626 
L 144.817806 263.45365 
L 143.383522 266.58082 
L 141.937111 269.055235 
L 140.481205 271.055775 
L 139.017781 272.712915 
L 137.057356 274.548671 
L 135.088671 276.096889 
L 132.61873 277.780162 
L 129.147431 279.873366 
L 123.667311 282.892638 
L 110.611116 289.748929 
L 106.059479 292.119927 
L 106.059479 292.119927 
" clip-path="url(#p81daae1e20)" style="fill: none; stroke: #1f77b4; stroke-width: 1.5"/>
    <path d="M 262.373598 71.411346 
L 159.445087 118.932989 
L 159.071667 129.008952 
L 158.428418 156.113885 
L 157.726212 178.052239 
L 156.975597 195.854358 
L 156.185073 210.333662 
L 155.361544 222.136573 
L 154.510646 231.779513 
L 153.637002 239.676777 
L 152.744421 246.161814 
L 151.836042 251.503674 
L 150.914465 255.919857 
L 149.981839 259.586423 
L 149.039946 262.646023 
L 148.090263 265.214304 
L 146.653749 268.345712 
L 145.205692 270.823779 
L 143.748564 272.827548 
L 142.284224 274.487611 
L 140.32291 276.326936 
L 138.35359 277.878469 
L 135.883076 279.565669 
L 132.411204 281.66415 
L 126.930403 284.691505 
L 113.87275 291.566818 
L 109.320576 293.944454 
L 109.320576 293.944454 
" clip-path="url(#p81daae1e20)" style="fill: none; stroke: #1f77b4; stroke-width: 1.5"/>
    <path d="M 265.782611 72.868459 
L 162.853158 120.522423 
L 162.470824 130.609058 
L 161.803482 157.742029 
L 161.08185 179.702847 
L 160.315547 197.523102 
L 159.512338 212.017158 
L 158.678543 223.832153 
L 157.819329 233.485062 
L 156.938947 241.39061 
L 156.040902 247.882586 
L 155.128092 253.230308 
L 154.202919 257.651486 
L 153.267373 261.32235 
L 152.323107 264.385689 
L 151.371494 266.957257 
L 149.932733 270.092936 
L 148.483018 272.574679 
L 147.024657 274.581693 
L 145.559392 276.244693 
L 143.597179 278.087597 
L 141.627215 279.642454 
L 139.156121 281.333587 
L 135.683662 283.437349 
L 130.202162 286.472793 
L 117.143008 293.367135 
L 112.590282 295.75141 
L 112.590282 295.75141 
" clip-path="url(#p81daae1e20)" style="fill: none; stroke: #1f77b4; stroke-width: 1.5"/>
    <path d="M 269.201747 74.290083 
L 166.270657 122.075733 
L 165.879356 132.17327 
L 165.187779 159.334902 
L 164.446608 181.318678 
L 163.664524 199.157467 
L 162.848555 213.666592 
L 162.004429 225.493925 
L 161.136848 235.157007 
L 160.249685 243.071004 
L 159.34614 249.570051 
L 158.428868 254.923739 
L 157.500073 259.349997 
L 156.561584 263.025228 
L 155.614926 266.092358 
L 154.661365 268.667256 
L 153.220337 271.807253 
L 151.768943 274.292705 
L 150.309333 276.302988 
L 148.843127 277.968939 
L 146.879997 279.815433 
L 144.909373 281.373619 
L 142.437676 283.068685 
L 138.964603 285.177723 
L 133.482362 288.22124 
L 120.421605 295.134567 
L 115.868292 297.525467 
L 115.868292 297.525467 
" clip-path="url(#p81daae1e20)" style="fill: none; stroke: #1f77b4; stroke-width: 1.5"/>
    <path d="M 272.631519 75.654804 
L 169.697505 123.570853 
L 169.297181 133.679639 
L 168.581223 160.870868 
L 167.820393 182.878349 
L 167.022431 200.736267 
L 166.193619 215.260938 
L 165.339096 227.100991 
L 164.463091 236.774552 
L 163.569097 244.697244 
L 162.660011 251.203558 
L 161.738241 256.563369 
L 160.805792 260.994831 
L 159.864333 264.674528 
L 158.915257 267.745528 
L 157.959726 270.323817 
L 156.516398 273.468201 
L 155.063299 275.957406 
L 153.602414 277.970987 
L 152.135245 279.639906 
L 150.171166 281.490002 
L 148.199853 283.051516 
L 145.232103 285.067267 
L 141.258955 287.436041 
L 134.770249 290.992688 
L 119.154225 299.246039 
L 119.154225 299.246039 
" clip-path="url(#p81daae1e20)" style="fill: none; stroke: #1f77b4; stroke-width: 1.5"/>
    <path d="M 276.072587 76.937449 
L 173.133667 124.98185 
L 172.724261 135.102368 
L 171.98377 162.324499 
L 171.203156 184.356725 
L 170.38921 202.234603 
L 169.547467 216.775486 
L 168.682473 228.628792 
L 167.79798 238.313259 
L 166.8971 246.244986 
L 165.982425 252.75884 
L 165.056114 258.124992 
L 164.119972 262.561832 
L 163.175508 266.24613 
L 162.223984 269.321109 
L 161.266453 271.902872 
L 159.820786 275.051733 
L 158.365944 277.544753 
L 156.903747 279.561668 
L 155.43558 281.233576 
L 153.47051 283.087282 
L 151.498465 284.65212 
L 148.529908 286.672538 
L 144.555962 289.047231 
L 138.066194 292.613247 
L 122.447688 300.888938 
L 122.447688 300.888938 
" clip-path="url(#p81daae1e20)" style="fill: none; stroke: #1f77b4; stroke-width: 1.5"/>
    <path d="M 279.525697 78.113257 
L 176.579212 126.283206 
L 176.16066 136.416073 
L 175.395475 163.670778 
L 174.594942 185.729082 
L 173.764901 203.627986 
L 172.910133 218.185932 
L 172.034586 230.053173 
L 171.141534 239.749092 
L 170.233707 247.690292 
L 169.313387 254.212034 
L 168.382486 259.584804 
L 167.442608 264.02724 
L 166.495098 267.716314 
L 165.541085 270.795407 
L 164.099908 274.518461 
L 162.648779 277.429395 
L 161.189677 279.750159 
L 159.724116 281.642737 
L 158.253247 283.225234 
L 156.285318 284.998011 
L 153.816554 286.861196 
L 150.843507 288.796443 
L 146.366223 291.401729 
L 138.361757 295.743254 
L 125.748389 302.430376 
L 125.748389 302.430376 
" clip-path="url(#p81daae1e20)" style="fill: none; stroke: #1f77b4; stroke-width: 1.5"/>
    <path d="M 282.991558 79.164228 
L 180.034359 127.456367 
L 179.606594 137.602302 
L 178.816545 164.891524 
L 177.995954 186.977454 
L 177.149698 204.898621 
L 176.281804 219.47462 
L 175.395616 231.356588 
L 174.493928 241.064592 
L 173.579087 249.01577 
L 172.653062 255.545805 
L 171.717517 260.925514 
L 170.773851 265.373802 
L 169.823249 269.067853 
L 168.866706 272.151216 
L 167.422556 275.879646 
L 165.969202 278.795026 
L 164.508416 281.119562 
L 163.041562 283.015425 
L 161.569685 284.600856 
L 159.600718 286.377165 
L 157.130974 288.244369 
L 154.157021 290.184108 
L 149.678633 292.795812 
L 141.672419 297.148483 
L 129.056276 303.853076 
L 129.056276 303.853076 
" clip-path="url(#p81daae1e20)" style="fill: none; stroke: #1f77b4; stroke-width: 1.5"/>
    <path d="M 286.47066 80.086218 
L 183.499499 128.497055 
L 183.06245 138.6568 
L 182.247363 165.982552 
L 181.406565 188.097712 
L 180.543972 206.042423 
L 179.662845 220.637499 
L 178.765925 232.535015 
L 177.855524 242.255761 
L 176.933597 250.217442 
L 176.001805 256.756187 
L 175.061558 262.143169 
L 174.114055 266.597573 
L 173.160311 270.296808 
L 172.201193 273.384605 
L 170.754008 277.118589 
L 169.29837 280.038532 
L 167.835844 282.366914 
L 166.367645 284.266105 
L 164.894706 285.85449 
L 162.924632 287.634332 
L 160.453826 289.505532 
L 157.478865 291.449711 
L 152.999223 294.067735 
L 144.990995 298.431352 
L 132.371652 305.153092 
L 132.371652 305.153092 
" clip-path="url(#p81daae1e20)" style="fill: none; stroke: #1f77b4; stroke-width: 1.5"/>
    <path d="M 289.963099 80.894302 
L 186.97516 129.420794 
L 186.528757 139.595015 
L 185.688451 166.959098 
L 184.827299 189.104925 
L 183.948243 207.074326 
L 183.053778 221.689398 
L 182.146037 233.603195 
L 181.226843 243.337271 
L 180.297764 251.309925 
L 179.360144 257.857755 
L 178.415142 263.252308 
L 177.463751 267.713064 
L 176.506822 271.41767 
L 175.545087 274.510047 
L 174.09481 278.249745 
L 172.636834 281.174358 
L 171.172518 283.506655 
L 169.702925 285.409213 
L 168.22888 287.000571 
L 166.257639 288.783949 
L 163.785695 290.659125 
L 160.809641 292.607701 
L 156.328615 295.231961 
L 148.318138 299.606352 
L 135.695226 306.344961 
L 135.695226 306.344961 
" clip-path="url(#p81daae1e20)" style="fill: none; stroke: #1f77b4; stroke-width: 1.5"/>
    <path d="M 293.468455 81.623864 
L 190.461921 130.264035 
L 190.006096 140.45321 
L 189.140393 167.856916 
L 188.25874 190.034439 
L 187.3631 208.029354 
L 186.455198 222.665079 
L 185.536551 234.595685 
L 184.608493 244.343512 
L 183.6722 252.327476 
L 182.7287 258.884662 
L 181.778897 264.287 
L 180.823578 268.754279 
L 179.863428 272.464392 
L 178.899042 275.561456 
L 177.445629 279.306986 
L 175.985276 282.236348 
L 174.519134 284.57261 
L 173.048114 286.478567 
L 171.572929 288.072915 
L 169.60048 289.859836 
L 167.12735 291.73898 
L 164.150143 293.691928 
L 159.667647 296.322371 
L 151.65477 300.707431 
L 139.028045 307.462738 
L 139.028045 307.462738 
" clip-path="url(#p81daae1e20)" style="fill: none; stroke: #1f77b4; stroke-width: 1.5"/>
    <path d="M 296.985812 82.326022 
L 193.960294 131.07945 
L 193.494982 141.283784 
L 192.603709 168.727663 
L 191.701417 190.937318 
L 190.789082 208.958095 
L 189.867651 223.614752 
L 188.938024 235.562391 
L 188.001043 245.324149 
L 187.057486 253.319569 
L 186.108065 259.886227 
L 185.153427 265.296444 
L 184.194151 269.770321 
L 183.230756 273.486 
L 182.263701 276.5878 
L 180.807128 280.339216 
L 179.344378 283.273367 
L 177.876394 285.613622 
L 176.403933 287.522997 
L 174.927596 289.120348 
L 172.953926 290.910823 
L 170.479595 292.793941 
L 167.50122 294.751264 
L 163.017232 297.387889 
L 155.001914 301.783608 
L 142.371315 308.555596 
L 142.371315 308.555596 
" clip-path="url(#p81daae1e20)" style="fill: none; stroke: #1f77b4; stroke-width: 1.5"/>
    <path d="M 300.513905 83.058166 
L 197.47061 131.926183 
L 196.995753 142.14557 
L 196.078751 169.62933 
L 195.155692 191.870884 
L 194.226562 209.917336 
L 193.291525 224.594777 
L 192.350857 236.559329 
L 191.404904 246.334926 
L 190.454048 254.341727 
L 189.498679 260.917799 
L 188.539186 266.335852 
L 187.575941 270.816294 
L 186.609292 274.537515 
L 185.639562 277.644032 
L 184.179826 281.40132 
L 182.714683 284.340253 
L 181.244864 286.684501 
L 179.770971 288.5973 
L 178.293494 290.197663 
L 176.31862 291.991708 
L 173.843112 293.878825 
L 170.8636 295.840555 
L 166.378168 298.483415 
L 158.3605 302.889892 
L 145.726167 309.678719 
L 145.726167 309.678719 
" clip-path="url(#p81daae1e20)" style="fill: none; stroke: #1f77b4; stroke-width: 1.5"/>
    <path d="M 304.051387 83.872438 
L 200.992967 132.857976 
L 200.508513 143.092026 
L 199.565632 170.614606 
L 198.621694 192.887211 
L 197.675682 210.958662 
L 196.726972 225.656346 
L 195.775215 237.637382 
L 194.820258 247.426472 
L 193.862079 255.444382 
L 192.900749 262.029653 
L 191.936396 267.455372 
L 190.96918 271.942247 
L 189.999282 275.668908 
L 189.026885 278.780065 
L 187.564005 282.543143 
L 186.096492 285.486809 
L 184.624865 287.835028 
L 183.149572 289.751243 
L 181.670988 291.354623 
L 179.694956 293.152259 
L 177.218331 295.043415 
L 174.237755 297.009613 
L 169.750992 299.658812 
L 161.731178 304.076244 
L 149.093437 310.882226 
L 149.093437 310.882226 
" clip-path="url(#p81daae1e20)" style="fill: none; stroke: #1f77b4; stroke-width: 1.5"/>
    <path d="M 307.597107 84.805924 
L 204.527236 133.913064 
L 204.033139 144.161184 
L 203.064243 171.72097 
L 202.099322 194.02334 
L 201.136352 212.118761 
L 200.173915 226.835866 
L 199.211032 238.832729 
L 198.247046 248.63479 
L 197.281532 256.663393 
L 196.314238 263.257534 
L 195.345027 268.690658 
L 194.373851 273.183763 
L 193.400717 276.915706 
L 192.425673 280.031382 
L 190.959682 283.800123 
L 189.489838 286.748446 
L 188.016446 289.100592 
L 186.539797 291.020207 
L 185.060153 292.626607 
L 183.083029 294.427858 
L 180.605371 296.323104 
L 177.623835 298.293852 
L 173.1359 300.949528 
L 165.114227 305.378183 
L 152.473534 312.201751 
L 152.473534 312.201751 
" clip-path="url(#p81daae1e20)" style="fill: none; stroke: #1f77b4; stroke-width: 1.5"/>
    <path d="M 311.150321 85.875577 
L 208.073134 135.108934 
L 207.569353 145.370436 
L 206.574313 172.965555 
L 205.588312 195.296197 
L 204.608315 213.414395 
L 203.632103 228.149969 
L 202.658062 240.161897 
L 201.685029 249.976323 
L 200.712174 258.015136 
L 199.738916 264.617763 
L 198.764857 270.057991 
L 197.789735 274.557089 
L 196.813386 278.29413 
L 195.835717 281.414185 
L 194.366655 285.18844 
L 192.894526 288.141328 
L 191.419418 290.49735 
L 189.941465 292.420345 
L 188.460817 294.029766 
L 186.482674 295.834658 
L 184.004079 297.734051 
L 181.021702 299.709437 
L 176.532775 302.371747 
L 168.509567 306.811926 
L 155.866437 313.653561 
L 155.866437 313.653561 
" clip-path="url(#p81daae1e20)" style="fill: none; stroke: #1f77b4; stroke-width: 1.5"/>
    <path d="M 314.710771 87.078829 
L 211.630322 136.442953 
L 211.116816 146.71716 
L 210.095508 174.34577 
L 209.088336 196.703213 
L 208.091244 214.843015 
L 207.10121 229.596119 
L 206.115981 241.622364 
L 205.133884 251.448557 
L 204.15368 259.497104 
L 203.17446 266.107841 
L 202.195562 271.554876 
L 201.216508 276.059733 
L 200.236963 279.801693 
L 199.256692 282.925987 
L 197.784599 286.705611 
L 196.31023 289.662972 
L 194.833455 292.022821 
L 193.35425 293.949177 
L 191.872649 295.56162 
L 189.893562 297.370177 
L 187.414125 299.273774 
L 184.431021 301.253886 
L 179.941278 303.922984 
L 171.916853 308.374983 
L 159.271791 315.235162 
L 159.271791 315.235162 
" clip-path="url(#p81daae1e20)" style="fill: none; stroke: #1f77b4; stroke-width: 1.5"/>
    <path d="M 318.278627 88.398692 
L 215.198494 137.897627 
L 214.675221 148.183949 
L 213.627519 175.84445 
L 212.599082 198.227419 
L 211.584827 216.387805 
L 210.580922 231.157626 
L 209.584471 243.197537 
L 208.59329 253.034979 
L 207.605727 261.092849 
L 206.620544 267.711369 
L 205.636811 273.164953 
L 204.653837 277.675369 
L 203.67111 281.42209 
L 202.688255 284.550504 
L 201.213165 288.33537 
L 199.736594 291.297128 
L 198.258193 293.660763 
L 196.777781 295.590462 
L 195.295275 297.20593 
L 193.315308 299.018177 
L 190.835111 300.926028 
L 187.851382 302.910946 
L 183.360978 305.58697 
L 175.335616 310.051053 
L 162.689067 316.930202 
L 162.689067 316.930202 
" clip-path="url(#p81daae1e20)" style="fill: none; stroke: #1f77b4; stroke-width: 1.5"/>
    <path d="M 321.854345 89.810819 
L 218.77743 139.44787 
L 218.244346 149.745851 
L 217.170121 177.436997 
L 216.120321 199.844497 
L 215.088828 218.024675 
L 214.070997 232.810578 
L 213.063287 244.86365 
L 212.062995 254.711937 
L 211.068058 262.77881 
L 210.076904 269.404859 
L 209.088336 274.864794 
L 208.101445 279.380613 
L 207.115545 283.131975 
L 206.13012 286.264416 
L 204.652057 290.054429 
L 203.173312 293.020526 
L 201.693318 295.387915 
L 200.211733 297.320947 
L 198.728358 298.939445 
L 196.747562 300.755402 
L 194.266672 302.667552 
L 191.2824 304.657343 
L 186.791459 307.340407 
L 178.765386 311.816794 
L 166.117709 318.715265 
L 166.117709 318.715265 
" clip-path="url(#p81daae1e20)" style="fill: none; stroke: #1f77b4; stroke-width: 1.5"/>
    <path d="M 325.4385 91.289999 
L 222.367006 141.067707 
L 221.824064 151.377024 
L 220.723182 179.097939 
L 219.651914 201.529272 
L 218.603105 219.728682 
L 217.571288 234.530222 
L 216.552273 246.596099 
L 215.542839 256.454948 
L 214.540506 264.530599 
L 213.543367 271.164001 
L 212.549957 276.630147 
L 211.559148 281.15126 
L 210.570078 284.90718 
L 209.582088 288.043586 
L 208.101065 291.83868 
L 206.620165 294.809078 
L 205.138601 297.180204 
L 203.655868 299.116565 
L 202.171651 300.738099 
L 200.190064 302.557786 
L 197.708529 304.474269 
L 194.723775 306.468986 
L 190.232392 309.159181 
L 182.205777 313.648044 
L 169.557241 320.566113 
L 169.557241 320.566113 
" clip-path="url(#p81daae1e20)" style="fill: none; stroke: #1f77b4; stroke-width: 1.5"/>
    <path d="M 329.031652 92.814527 
L 225.967185 142.734768 
L 225.414335 153.055219 
L 224.286654 180.805345 
L 223.19381 203.260065 
L 222.127599 221.478353 
L 221.081731 236.295246 
L 220.051361 248.373703 
L 219.032746 258.242936 
L 218.02299 266.327223 
L 217.019847 272.967867 
L 216.021581 278.440136 
L 215.026847 282.966477 
L 214.034603 286.726904 
L 213.044049 289.867236 
L 211.560073 293.667374 
L 210.077028 296.642052 
L 208.593907 299.016906 
L 207.110042 300.956597 
L 205.625001 302.581174 
L 203.642648 304.404608 
L 201.160504 306.325455 
L 198.175311 308.325141 
L 193.683551 311.022537 
L 185.656517 315.524007 
L 173.007316 322.461884 
L 173.007316 322.461884 
" clip-path="url(#p81daae1e20)" style="fill: none; stroke: #1f77b4; stroke-width: 1.5"/>
    <path d="M 332.634267 94.368092 
L 229.577984 144.43225 
L 229.015174 154.763719 
L 227.860549 182.542739 
L 226.746013 205.020594 
L 225.66231 223.257557 
L 224.602321 238.089644 
L 223.560542 250.180553 
L 222.532705 260.060068 
L 221.515492 268.152912 
L 220.506322 274.800735 
L 219.503184 280.279081 
L 218.504512 284.810613 
L 217.509087 288.57552 
L 216.515964 291.71976 
L 215.029033 295.524924 
L 213.543848 298.503874 
L 212.059177 300.882456 
L 210.57419 302.825482 
L 209.088336 304.453111 
L 207.105234 306.28031 
L 204.622504 308.205545 
L 201.636902 310.210233 
L 197.144814 312.914883 
L 189.117446 317.429062 
L 176.467716 324.386909 
L 176.467716 324.386909 
" clip-path="url(#p81daae1e20)" style="fill: none; stroke: #1f77b4; stroke-width: 1.5"/>
    <path d="M 336.246689 95.939761 
L 233.199451 146.148885 
L 232.626625 156.491316 
L 231.444907 184.299076 
L 230.308561 206.799943 
L 229.207273 225.055483 
L 228.133088 239.902684 
L 227.079842 252.005983 
L 226.042737 261.895733 
L 225.018034 269.997097 
L 224.00281 276.652071 
L 222.994779 282.136473 
L 221.992154 286.673181 
L 220.993538 290.442558 
L 219.997839 293.590699 
L 218.507949 297.400884 
L 217.020622 300.384108 
L 215.534403 302.766423 
L 214.0483 304.712792 
L 212.56164 306.343483 
L 210.577801 308.174461 
L 208.0945 310.104106 
L 205.108511 312.113823 
L 200.616128 314.825773 
L 192.588488 319.35274 
L 179.938328 326.330685 
L 179.938328 326.330685 
" clip-path="url(#p81daae1e20)" style="fill: none; stroke: #1f77b4; stroke-width: 1.5"/>
    <path d="M 339.869154 97.522913 
L 236.831642 147.877851 
L 236.248745 158.231226 
L 235.039781 186.06767 
L 233.881504 208.591502 
L 232.762535 226.865583 
L 231.674079 241.727871 
L 230.609306 253.843539 
L 229.562886 263.743507 
L 228.530655 271.853379 
L 227.509347 278.515497 
L 226.496402 284.005949 
L 225.489808 288.547831 
L 224.487989 292.321676 
L 223.489705 295.47372 
L 221.996847 299.288931 
L 220.507375 302.276435 
L 219.019609 304.662492 
L 217.532391 306.612213 
L 216.044929 308.245977 
L 214.060361 310.080748 
L 211.576502 312.014822 
L 208.590141 314.029594 
L 204.097488 316.74888 
L 196.069624 321.288705 
L 183.41911 328.286857 
L 183.41911 328.286857 
" clip-path="url(#p81daae1e20)" style="fill: none; stroke: #1f77b4; stroke-width: 1.5"/>
    <path d="M 343.50182 99.113898 
L 240.474617 149.61539 
L 239.881593 159.979709 
L 238.645228 187.844835 
L 237.464897 210.391631 
L 236.328149 228.684253 
L 235.225344 243.561626 
L 234.148982 255.689664 
L 233.0932 265.599852 
L 232.053402 273.718235 
L 231.025981 280.387499 
L 230.008097 285.884006 
L 228.997517 290.431066 
L 227.99248 294.209386 
L 226.991603 297.365337 
L 225.495766 301.185584 
L 224.004145 304.177377 
L 222.51483 306.567185 
L 221.026499 308.52027 
L 219.538239 310.157116 
L 217.552947 311.995696 
L 215.068539 313.934218 
L 212.081819 315.954066 
L 207.588918 318.680723 
L 199.560869 323.233467 
L 186.910064 330.251925 
L 186.910064 330.251925 
" clip-path="url(#p81daae1e20)" style="fill: none; stroke: #1f77b4; stroke-width: 1.5"/>
    <path d="M 347.144788 100.71088 
L 244.128433 151.359612 
L 243.525224 161.734888 
L 242.261301 189.628722 
L 241.058792 212.198502 
L 239.904166 230.50968 
L 238.786934 245.402154 
L 237.698921 257.542573 
L 236.633725 267.462991 
L 235.586323 275.589894 
L 234.552758 282.266314 
L 233.529912 287.768883 
L 232.515326 292.32113 
L 231.507059 296.103932 
L 230.503576 299.263799 
L 229.004752 303.089092 
L 227.510976 306.085187 
L 226.02011 308.478757 
L 224.530666 310.435215 
L 223.041609 312.075155 
L 221.055599 313.917558 
L 218.570649 315.860546 
L 215.583582 317.885492 
L 211.090452 320.619553 
L 203.062255 325.185275 
L 190.411214 332.224131 
L 190.411214 332.224131 
" clip-path="url(#p81daae1e20)" style="fill: none; stroke: #1f77b4; stroke-width: 1.5"/>
    <path d="M 350.798131 102.313017 
L 247.793142 153.109653 
L 247.17969 163.495901 
L 245.888052 191.418482 
L 244.66324 214.011277 
L 243.490636 232.341036 
L 242.358897 247.248629 
L 241.259169 259.401447 
L 240.184511 269.33211 
L 239.129464 277.467547 
L 238.089724 284.151134 
L 237.061892 289.659777 
L 236.043282 294.21722 
L 235.031769 298.004514 
L 234.025671 301.168305 
L 232.523848 304.998657 
L 231.027911 307.999064 
L 229.535492 310.396409 
L 228.044934 312.356252 
L 226.555083 313.999296 
L 224.568358 315.845536 
L 222.082876 317.793008 
L 219.095472 319.823075 
L 214.602131 322.56457 
L 206.573819 327.143328 
L 193.922599 334.202674 
L 193.922599 334.202674 
" clip-path="url(#p81daae1e20)" style="fill: none; stroke: #1f77b4; stroke-width: 1.5"/>
    <path d="M 354.461908 103.919959 
L 251.468797 154.865155 
L 250.845043 165.262393 
L 249.525531 193.213765 
L 248.278288 215.82961 
L 247.087607 234.177978 
L 245.941281 249.100715 
L 244.829775 261.26595 
L 243.745604 271.206875 
L 242.682872 279.35086 
L 241.636925 286.041627 
L 240.604083 291.556355 
L 239.58143 296.119006 
L 238.566657 299.9108 
L 237.557933 303.078525 
L 236.0531 306.913949 
L 234.554995 309.918681 
L 233.06102 312.319811 
L 231.56935 314.283051 
L 230.078705 315.929211 
L 228.09127 317.779303 
L 225.605262 319.731277 
L 222.617532 321.766484 
L 218.123999 324.515447 
L 210.095606 329.107297 
L 197.44426 336.187223 
L 197.44426 336.187223 
" clip-path="url(#p81daae1e20)" style="fill: none; stroke: #1f77b4; stroke-width: 1.5"/>
    <path d="M 358.136167 105.531579 
L 255.155447 156.625991 
L 254.521333 167.034237 
L 253.173786 195.014448 
L 251.903986 217.65338 
L 250.695125 236.020386 
L 249.534133 250.95829 
L 248.410785 263.135964 
L 247.317049 273.087168 
L 246.246592 281.239715 
L 245.194407 287.937676 
L 244.15653 293.458501 
L 243.129815 298.02637 
L 242.111767 301.822676 
L 241.100406 304.994344 
L 239.592552 308.834853 
L 238.092273 311.843923 
L 236.596739 314.24885 
L 235.103956 316.215497 
L 233.61252 317.864785 
L 231.624379 319.718743 
L 229.137852 321.675236 
L 226.149808 323.715606 
L 221.6561 326.472069 
L 213.62766 331.077068 
L 200.976241 338.177664 
L 200.976241 338.177664 
" clip-path="url(#p81daae1e20)" style="fill: none; stroke: #1f77b4; stroke-width: 1.5"/>
    <path d="M 361.820955 107.147845 
L 258.853142 158.392129 
L 258.208609 168.811404 
L 256.832866 196.8205 
L 255.540381 219.482556 
L 254.313239 237.868231 
L 253.137498 252.821327 
L 252.002243 265.011459 
L 250.898892 274.972961 
L 249.82067 283.134086 
L 248.762215 289.839253 
L 247.719277 295.366188 
L 246.688481 299.939286 
L 245.667144 303.740113 
L 244.653134 306.915734 
L 243.142249 310.761341 
L 241.63979 313.774761 
L 240.142694 316.183498 
L 238.648797 318.153564 
L 237.156572 319.805991 
L 235.16773 321.66383 
L 232.680692 323.624861 
L 229.692343 325.670414 
L 225.198478 328.434408 
L 217.170025 333.052614 
L 204.518587 340.173972 
L 204.518587 340.173972 
" clip-path="url(#p81daae1e20)" style="fill: none; stroke: #1f77b4; stroke-width: 1.5"/>
    <path d="M 365.51632 108.768758 
L 262.561933 160.163575 
L 261.90692 170.593897 
L 260.502819 198.631928 
L 259.18752 221.317145 
L 257.941994 239.721519 
L 256.751423 254.689832 
L 255.604197 266.892444 
L 254.491179 276.864259 
L 253.40515 285.033978 
L 252.340394 291.746366 
L 251.292371 297.279423 
L 250.257473 301.85776 
L 249.232832 305.66312 
L 248.216163 308.842702 
L 246.702234 312.693422 
L 245.197589 315.711205 
L 243.698929 318.123763 
L 242.203918 320.09726 
L 240.710905 321.752835 
L 238.721366 323.614571 
L 236.233825 325.580157 
L 233.245183 327.630916 
L 228.751179 330.402474 
L 220.722747 335.033943 
L 208.071344 342.176154 
L 208.071344 342.176154 
" clip-path="url(#p81daae1e20)" style="fill: none; stroke: #1f77b4; stroke-width: 1.5"/>
    <path d="M 366.574087 109.232731 
L 263.623632 160.67068 
L 262.965614 171.104162 
L 261.553381 199.150468 
L 260.23154 221.84231 
L 258.980743 240.252032 
L 257.785919 255.224697 
L 256.63526 267.430878 
L 255.519471 277.405644 
L 254.431205 285.577821 
L 253.364642 292.292275 
L 252.315161 297.827083 
L 251.279089 302.406919 
L 250.253501 306.213576 
L 249.23607 309.394292 
L 247.721269 313.246474 
L 246.215998 316.265506 
L 244.716891 318.679158 
L 243.221562 320.653637 
L 241.728324 322.310115 
L 239.738586 324.172966 
L 237.250902 326.139858 
L 234.262179 328.192108 
L 229.768139 330.965833 
L 221.739719 335.601102 
L 209.088336 342.749288 
L 209.088336 342.749288 
" clip-path="url(#p81daae1e20)" style="fill: none; stroke: #1f77b4; stroke-width: 1.5"/>
    <path d="M 209.088336 47.914284 
L 266.758455 73.279099 
L 273.613497 76.030787 
L 278.537821 77.789464 
L 282.991558 79.164228 
L 287.467147 80.327539 
L 292.966929 81.522631 
L 304.051387 83.872438 
L 308.611566 85.097422 
L 313.183976 86.547631 
L 318.278627 88.398692 
L 324.925939 91.07546 
L 335.730018 95.714418 
L 366.574087 109.232731 
L 366.574087 109.232731 
" clip-path="url(#p81daae1e20)" style="fill: none; stroke: #1f77b4; stroke-width: 1.5"/>
    <path d="M 205.825341 49.356001 
L 263.497107 74.790217 
L 270.352369 77.550003 
L 275.276702 79.314293 
L 279.730288 80.693929 
L 284.205569 81.861924 
L 289.70481 83.062547 
L 300.788244 85.423469 
L 305.348262 86.653296 
L 309.92072 88.108592 
L 315.015649 89.96557 
L 321.663585 92.650339 
L 332.469022 97.30264 
L 363.31791 110.85964 
L 363.31791 110.85964 
" clip-path="url(#p81daae1e20)" style="fill: none; stroke: #1f77b4; stroke-width: 1.5"/>
    <path d="M 202.553543 50.801607 
L 260.22675 76.30551 
L 267.082208 79.073427 
L 272.006529 80.843355 
L 276.459948 82.227884 
L 280.934901 83.400586 
L 286.433576 84.606766 
L 297.515937 86.978856 
L 302.075776 88.213547 
L 306.648264 89.673954 
L 311.743452 91.536874 
L 318.391989 94.22968 
L 329.198747 98.895381 
L 360.052356 112.491235 
L 360.052356 112.491235 
" clip-path="url(#p81daae1e20)" style="fill: none; stroke: #1f77b4; stroke-width: 1.5"/>
    <path d="M 199.272907 52.251119 
L 256.947347 77.824994 
L 263.802975 80.601077 
L 268.727266 82.376668 
L 273.180499 83.766111 
L 277.655105 84.943542 
L 283.153189 86.155306 
L 294.234429 88.538616 
L 298.794068 89.778196 
L 303.366568 91.243736 
L 308.461997 93.112624 
L 315.111111 95.813501 
L 325.919155 100.492661 
L 356.777385 114.127535 
L 356.777385 114.127535 
" clip-path="url(#p81daae1e20)" style="fill: none; stroke: #1f77b4; stroke-width: 1.5"/>
    <path d="M 195.983396 53.704552 
L 253.65886 79.348687 
L 260.514632 82.132971 
L 265.438874 83.914249 
L 269.891904 85.308629 
L 274.366143 86.490809 
L 279.863612 87.708185 
L 290.943679 90.102769 
L 295.5031 91.347259 
L 300.075595 92.817956 
L 305.171245 94.692839 
L 311.820912 97.401822 
L 322.630206 102.094497 
L 353.492956 115.76856 
L 353.492956 115.76856 
" clip-path="url(#p81daae1e20)" style="fill: none; stroke: #1f77b4; stroke-width: 1.5"/>
    <path d="M 192.684974 55.161922 
L 250.361252 80.876606 
L 257.217143 83.669126 
L 262.141316 85.456116 
L 266.594123 86.855455 
L 271.067976 88.042408 
L 276.564804 89.26542 
L 287.643649 91.671333 
L 292.202833 92.920757 
L 296.775303 94.396633 
L 301.871155 96.277537 
L 308.521353 98.994662 
L 319.331859 103.70091 
L 350.199028 117.414331 
L 350.199028 117.414331 
" clip-path="url(#p81daae1e20)" style="fill: none; stroke: #1f77b4; stroke-width: 1.5"/>
    <path d="M 189.377606 56.623245 
L 247.054484 82.408769 
L 253.910468 85.20956 
L 258.834553 87.002287 
L 263.287119 88.406608 
L 267.760566 89.598354 
L 273.256729 90.827031 
L 284.3343 93.244327 
L 288.893226 94.498707 
L 293.465654 95.979786 
L 298.561688 97.866739 
L 305.212393 100.59204 
L 316.024074 105.311921 
L 346.895559 119.064869 
L 346.895559 119.064869 
" clip-path="url(#p81daae1e20)" style="fill: none; stroke: #1f77b4; stroke-width: 1.5"/>
    <path d="M 186.061255 58.088537 
L 243.738518 83.945195 
L 250.594569 86.754291 
L 255.518546 88.55278 
L 259.970852 89.962105 
L 264.443873 91.158668 
L 269.939345 92.393035 
L 281.015592 94.821769 
L 285.574241 96.081128 
L 290.146608 97.567435 
L 295.242805 99.460462 
L 301.893991 102.193975 
L 312.706811 106.927547 
L 343.582509 120.720195 
L 343.582509 120.720195 
" clip-path="url(#p81daae1e20)" style="fill: none; stroke: #1f77b4; stroke-width: 1.5"/>
    <path d="M 182.735883 59.557815 
L 240.413316 85.485899 
L 247.269407 88.303337 
L 252.193257 90.107614 
L 256.645284 91.521964 
L 261.11786 92.723366 
L 266.612615 93.963452 
L 277.687485 96.403679 
L 282.245837 97.66804 
L 286.818124 99.159597 
L 291.914464 101.058726 
L 298.566109 103.800488 
L 309.380029 108.547809 
L 340.259835 122.380329 
L 340.259835 122.380329 
" clip-path="url(#p81daae1e20)" style="fill: none; stroke: #1f77b4; stroke-width: 1.5"/>
    <path d="M 179.401455 61.031094 
L 237.078839 87.030902 
L 243.934944 89.856717 
L 248.858647 91.666806 
L 253.310376 93.086205 
L 257.782485 94.292468 
L 263.276497 95.5383 
L 274.349939 97.990075 
L 278.907975 99.259462 
L 283.480162 100.756294 
L 288.576626 102.661551 
L 295.228704 105.411597 
L 306.043686 110.172728 
L 336.927496 124.045292 
L 336.927496 124.045292 
" clip-path="url(#p81daae1e20)" style="fill: none; stroke: #1f77b4; stroke-width: 1.5"/>
    <path d="M 176.057933 62.508391 
L 233.735048 88.580219 
L 240.591141 91.414447 
L 245.514675 93.230375 
L 249.966087 94.654846 
L 254.43771 95.865993 
L 259.930954 97.117598 
L 271.002915 99.580977 
L 275.560613 100.855413 
L 280.132682 102.357543 
L 285.22925 104.268957 
L 291.881736 107.027323 
L 302.697742 111.802323 
L 333.585448 125.715105 
L 333.585448 125.715105 
" clip-path="url(#p81daae1e20)" style="fill: none; stroke: #1f77b4; stroke-width: 1.5"/>
    <path d="M 172.70528 63.989723 
L 230.381904 90.133871 
L 237.237957 92.976548 
L 242.161304 94.798339 
L 246.612379 96.227905 
L 251.083495 97.443958 
L 256.575944 98.701364 
L 267.646371 101.176403 
L 272.203712 102.455912 
L 276.775644 103.963365 
L 281.872294 105.880962 
L 288.525164 108.647685 
L 299.342154 113.436615 
L 330.233651 127.38979 
L 330.233651 127.38979 
" clip-path="url(#p81daae1e20)" style="fill: none; stroke: #1f77b4; stroke-width: 1.5"/>
    <path d="M 169.343458 65.475105 
L 227.019368 91.691874 
L 233.875355 94.543036 
L 238.798492 96.370717 
L 243.249211 97.805401 
L 247.7198 99.026384 
L 253.211428 100.289618 
L 264.280267 102.776373 
L 268.83723 104.06098 
L 273.409005 105.573779 
L 278.505718 107.497587 
L 285.158946 110.272703 
L 295.976882 115.075623 
L 326.87206 129.069368 
L 326.87206 129.069368 
" clip-path="url(#p81daae1e20)" style="fill: none; stroke: #1f77b4; stroke-width: 1.5"/>
    <path d="M 165.97243 66.964556 
L 223.647401 93.254247 
L 230.503293 96.113931 
L 235.426201 97.947528 
L 239.876544 99.387353 
L 244.346585 100.613288 
L 249.837364 101.882379 
L 260.904562 104.380907 
L 265.461126 105.670634 
L 270.032725 107.188805 
L 275.12948 109.118852 
L 281.783041 111.902398 
L 292.601883 116.719369 
L 323.500634 130.753861 
L 323.500634 130.753861 
" clip-path="url(#p81daae1e20)" style="fill: none; stroke: #1f77b4; stroke-width: 1.5"/>
    <path d="M 162.592158 68.45809 
L 220.265962 94.821008 
L 227.121732 97.689251 
L 232.04439 99.528789 
L 236.494337 100.973779 
L 240.963809 102.20469 
L 246.453713 103.479666 
L 257.01396 105.859496 
L 261.568354 107.129798 
L 266.138093 108.628146 
L 271.23303 110.541292 
L 277.371611 113.092713 
L 287.149194 117.43215 
L 320.119328 132.443289 
L 320.119328 132.443289 
" clip-path="url(#p81daae1e20)" style="fill: none; stroke: #1f77b4; stroke-width: 1.5"/>
    <path d="M 159.202604 69.955726 
L 216.875011 96.392177 
L 223.730632 99.269015 
L 228.653019 101.114522 
L 233.10255 102.564699 
L 237.571431 103.800609 
L 243.060433 105.081499 
L 253.618991 107.472656 
L 258.172921 108.7481 
L 262.742419 110.251841 
L 267.837334 112.171256 
L 273.976147 114.730495 
L 283.754435 119.082706 
L 316.7281 134.137675 
L 316.7281 134.137675 
" clip-path="url(#p81daae1e20)" style="fill: none; stroke: #1f77b4; stroke-width: 1.5"/>
    <path d="M 155.803729 71.45748 
L 213.47451 97.967771 
L 220.329952 100.853242 
L 225.252046 102.704743 
L 229.701142 104.160132 
L 234.169411 105.401064 
L 239.657483 106.687896 
L 250.214301 109.090436 
L 254.767743 110.371046 
L 259.33698 111.880205 
L 264.431851 113.805916 
L 270.570873 116.373009 
L 280.34983 120.738049 
L 313.326905 135.837041 
L 313.326905 135.837041 
" clip-path="url(#p81daae1e20)" style="fill: none; stroke: #1f77b4; stroke-width: 1.5"/>
    <path d="M 152.395496 72.963369 
L 210.064416 99.54781 
L 216.919652 102.441951 
L 221.841432 104.299472 
L 226.290071 105.760096 
L 230.757707 107.006075 
L 236.244821 108.298877 
L 246.799845 110.712855 
L 251.35278 111.998656 
L 255.921736 113.513257 
L 261.016541 115.445294 
L 267.155747 118.020275 
L 276.935335 122.398201 
L 309.915699 137.541409 
L 309.915699 137.541409 
" clip-path="url(#p81daae1e20)" style="fill: none; stroke: #1f77b4; stroke-width: 1.5"/>
    <path d="M 148.977865 74.473411 
L 206.644689 101.132311 
L 213.499691 104.03516 
L 218.421136 105.898729 
L 222.869297 107.364612 
L 227.336278 108.615661 
L 232.822407 109.914462 
L 243.375584 112.339934 
L 247.927989 113.63095 
L 252.496642 115.151019 
L 257.591361 117.08941 
L 263.730726 119.672314 
L 273.510908 124.063182 
L 306.494439 139.2508 
L 306.494439 139.2508 
" clip-path="url(#p81daae1e20)" style="fill: none; stroke: #1f77b4; stroke-width: 1.5"/>
    <path d="M 145.550797 75.987622 
L 203.21529 102.721295 
L 210.070028 105.632889 
L 214.991115 107.502533 
L 219.438779 108.973699 
L 223.905082 110.229842 
L 229.390198 111.534671 
L 239.941473 113.971693 
L 244.493326 115.267949 
L 249.061657 116.793511 
L 254.156267 118.738284 
L 260.295766 121.329146 
L 270.076504 125.733014 
L 303.06308 140.965237 
L 303.06308 140.965237 
" clip-path="url(#p81daae1e20)" style="fill: none; stroke: #1f77b4; stroke-width: 1.5"/>
    <path d="M 142.114254 77.506019 
L 199.776175 104.31478 
L 206.63062 107.235157 
L 211.551328 109.110903 
L 215.998474 110.587377 
L 220.464078 111.848637 
L 225.948153 113.159524 
L 236.497471 115.608152 
L 241.048751 116.909672 
L 245.616737 118.440753 
L 250.711216 120.391937 
L 256.850825 122.990793 
L 266.632081 127.407717 
L 299.621577 142.684743 
L 299.621577 142.684743 
" clip-path="url(#p81daae1e20)" style="fill: none; stroke: #1f77b4; stroke-width: 1.5"/>
    <path d="M 138.668196 79.028621 
L 196.327305 105.912786 
L 203.181428 108.841984 
L 208.101734 110.723859 
L 212.54834 112.205664 
L 217.013223 113.472066 
L 222.496228 114.78904 
L 233.043535 117.249332 
L 237.594219 118.556141 
L 242.16184 120.092766 
L 247.256166 122.050391 
L 253.395859 124.657276 
L 263.177595 129.087313 
L 296.169884 144.409339 
L 296.169884 144.409339 
" clip-path="url(#p81daae1e20)" style="fill: none; stroke: #1f77b4; stroke-width: 1.5"/>
    <path d="M 135.212583 80.555444 
L 192.868637 107.515331 
L 199.722408 110.453389 
L 204.642291 112.34142 
L 209.088336 113.828581 
L 213.552474 115.10015 
L 219.034381 116.42324 
L 229.579622 118.895252 
L 234.129687 120.207376 
L 238.696922 121.749571 
L 243.791073 123.713665 
L 249.930825 126.328615 
L 259.713 130.771823 
L 292.707957 146.139049 
L 292.707957 146.139049 
" clip-path="url(#p81daae1e20)" style="fill: none; stroke: #1f77b4; stroke-width: 1.5"/>
    <path d="M 131.747376 82.086506 
L 189.40013 109.122435 
L 196.25352 112.069391 
L 201.172956 113.963606 
L 205.618419 115.456148 
L 210.081791 116.732907 
L 215.56257 118.062144 
L 226.105688 120.545933 
L 230.655112 121.863398 
L 235.221939 123.411188 
L 240.315893 125.381781 
L 246.455677 128.004832 
L 256.238253 132.46127 
L 289.235751 147.873895 
L 289.235751 147.873895 
" clip-path="url(#p81daae1e20)" style="fill: none; stroke: #1f77b4; stroke-width: 1.5"/>
    <path d="M 128.272534 83.621826 
L 185.921741 110.734117 
L 192.77472 113.690011 
L 197.693688 115.590437 
L 202.138546 117.088385 
L 206.601128 118.370359 
L 212.08075 119.705772 
L 222.621691 122.201397 
L 227.17045 123.524227 
L 231.736848 125.077639 
L 236.830581 127.05476 
L 242.970372 129.685949 
L 252.75331 134.155674 
L 285.753218 149.6139 
L 285.753218 149.6139 
" clip-path="url(#p81daae1e20)" style="fill: none; stroke: #1f77b4; stroke-width: 1.5"/>
    <path d="M 124.788017 85.16142 
L 182.433429 112.350397 
L 189.285966 115.315267 
L 194.204442 117.221933 
L 198.648674 118.725311 
L 203.110445 120.012525 
L 208.58888 121.354145 
L 219.127585 123.861663 
L 223.675657 125.189885 
L 228.241604 126.748945 
L 233.335093 128.732624 
L 239.474865 131.371986 
L 249.258125 135.855058 
L 282.260313 151.359088 
L 282.260313 151.359088 
" clip-path="url(#p81daae1e20)" style="fill: none; stroke: #1f77b4; stroke-width: 1.5"/>
    <path d="M 121.293786 86.705306 
L 178.935151 113.971296 
L 185.787215 116.945181 
L 190.705176 118.858114 
L 195.148761 120.366948 
L 199.609696 121.659427 
L 205.086915 123.007283 
L 215.623328 125.526753 
L 220.17069 126.860392 
L 224.736163 128.425126 
L 229.829386 130.415394 
L 235.969111 133.062966 
L 245.752652 137.559444 
L 278.75699 153.109481 
L 278.75699 153.109481 
" clip-path="url(#p81daae1e20)" style="fill: none; stroke: #1f77b4; stroke-width: 1.5"/>
    <path d="M 117.789799 88.253503 
L 175.426864 115.596831 
L 182.278424 118.579772 
L 187.195848 120.499001 
L 191.638762 122.013315 
L 196.098838 123.311084 
L 201.574812 124.665207 
L 212.108874 127.196688 
L 216.655502 128.53577 
L 221.22048 130.106205 
L 226.313413 132.103091 
L 232.453066 134.758909 
L 242.236847 139.268853 
L 275.243203 154.865102 
L 275.243203 154.865102 
" clip-path="url(#p81daae1e20)" style="fill: none; stroke: #1f77b4; stroke-width: 1.5"/>
    <path d="M 114.276015 89.806028 
L 171.908524 117.227024 
L 178.759551 120.21906 
L 183.676413 122.144613 
L 188.118635 123.664433 
L 192.577828 124.967517 
L 198.052526 126.327937 
L 208.584179 128.871489 
L 213.13005 130.21604 
L 217.69451 131.792202 
L 222.787129 133.795737 
L 228.926683 136.459839 
L 238.710664 140.983309 
L 271.718903 156.625976 
L 271.718903 156.625976 
" clip-path="url(#p81daae1e20)" style="fill: none; stroke: #1f77b4; stroke-width: 1.5"/>
    <path d="M 110.752393 91.362901 
L 168.38009 118.861895 
L 175.230551 121.863066 
L 180.146827 123.79497 
L 184.588335 125.320322 
L 189.046622 126.628746 
L 194.520013 127.995496 
L 205.049199 130.551177 
L 209.594289 131.901224 
L 214.158209 133.48314 
L 219.25049 135.493353 
L 225.389918 138.165777 
L 235.174057 142.702833 
L 268.184043 158.392126 
L 268.184043 158.392126 
" clip-path="url(#p81daae1e20)" style="fill: none; stroke: #1f77b4; stroke-width: 1.5"/>
    <path d="M 107.218892 92.924138 
L 164.841517 120.501464 
L 171.69138 123.511809 
L 176.607048 125.450095 
L 181.047818 126.981004 
L 185.505175 128.294794 
L 190.977229 129.667903 
L 201.503889 132.235774 
L 206.048173 133.591343 
L 210.611529 135.17904 
L 215.70345 137.195963 
L 221.842723 139.876746 
L 231.626979 144.427447 
L 264.638577 160.163575 
L 264.638577 160.163575 
" clip-path="url(#p81daae1e20)" style="fill: none; stroke: #1f77b4; stroke-width: 1.5"/>
    <path d="M 105.288986 151.547993 
L 162.042283 180.1689 
L 168.785981 183.310174 
L 174.109843 185.540321 
L 178.482585 187.145208 
L 183.359993 188.685276 
L 189.732771 190.421323 
L 197.630213 192.585872 
L 202.597061 194.19667 
L 207.086991 195.883511 
L 212.0969 198.003386 
L 218.641835 201.042358 
L 228.780485 206.035567 
L 260.23154 221.84231 
L 260.23154 221.84231 
" clip-path="url(#p81daae1e20)" style="fill: none; stroke: #1f77b4; stroke-width: 1.5"/>
    <path d="M 103.159429 199.922012 
L 159.674243 229.620527 
L 166.333446 232.848855 
L 171.590066 235.14438 
L 176.387849 236.976905 
L 181.204935 238.566442 
L 188.956575 240.828456 
L 195.29814 242.777468 
L 200.203113 244.535445 
L 205.130667 246.564882 
L 210.57595 249.069814 
L 218.042013 252.787249 
L 232.607862 260.363438 
L 256.073506 272.668186 
L 256.073506 272.668186 
" clip-path="url(#p81daae1e20)" style="fill: none; stroke: #1f77b4; stroke-width: 1.5"/>
    <path d="M 100.371363 223.826885 
L 156.54165 253.961218 
L 163.159149 257.243645 
L 168.382486 259.584804 
L 173.149547 261.462046 
L 177.935451 263.099408 
L 185.636411 265.441821 
L 191.936396 267.455372 
L 196.809315 269.260243 
L 201.704808 271.333615 
L 207.114791 273.883918 
L 214.53252 277.660092 
L 229.003725 285.346668 
L 252.315161 297.827083 
L 252.315161 297.827083 
" clip-path="url(#p81daae1e20)" style="fill: none; stroke: #1f77b4; stroke-width: 1.5"/>
    <path d="M 97.253576 236.080781 
L 153.257433 266.463903 
L 159.854788 269.776885 
L 165.061944 272.143444 
L 169.813954 274.045209 
L 174.584478 275.708471 
L 182.260336 278.094063 
L 188.539808 280.142407 
L 193.397058 281.972879 
L 198.277025 284.070591 
L 203.670059 286.646416 
L 211.064756 290.456083 
L 225.49112 298.206208 
L 248.729818 310.788151 
L 248.729818 310.788151 
" clip-path="url(#p81daae1e20)" style="fill: none; stroke: #1f77b4; stroke-width: 1.5"/>
    <path d="M 93.967927 242.771519 
L 149.890228 273.316082 
L 156.477709 276.648616 
L 161.676829 279.03111 
L 166.421252 280.947938 
L 171.183919 282.626819 
L 178.846847 285.038128 
L 185.115836 287.107314 
L 189.965216 288.953411 
L 194.837529 291.066297 
L 200.222356 293.658371 
L 207.60607 297.489754 
L 222.011313 305.281601 
L 245.216072 317.930548 
L 245.216072 317.930548 
" clip-path="url(#p81daae1e20)" style="fill: none; stroke: #1f77b4; stroke-width: 1.5"/>
    <path d="M 90.594906 246.819272 
L 146.475839 277.484323 
L 153.058309 280.83125 
L 158.253247 283.225234 
L 162.993615 285.152679 
L 167.751982 286.842343 
L 175.40774 289.271155 
L 181.670988 291.354623 
L 186.51619 293.211655 
L 191.384575 295.335412 
L 196.765333 297.939385 
L 204.143769 301.786968 
L 218.539126 309.610319 
L 241.728324 322.310115 
L 241.728324 322.310115 
" clip-path="url(#p81daae1e20)" style="fill: none; stroke: #1f77b4; stroke-width: 1.5"/>
    <path d="M 87.174454 249.622984 
L 143.032821 280.389481 
L 149.612556 283.7484 
L 154.805116 286.151804 
L 159.543078 288.087793 
L 164.298809 289.785984 
L 171.950084 292.228461 
L 178.209808 294.323148 
L 183.052555 296.18893 
L 187.918756 298.321552 
L 193.29738 300.935401 
L 200.673211 304.796618 
L 215.063943 312.64673 
L 238.246188 325.38988 
L 238.246188 325.38988 
" clip-path="url(#p81daae1e20)" style="fill: none; stroke: #1f77b4; stroke-width: 1.5"/>
    <path d="M 83.726233 251.848319 
L 139.570672 282.707575 
L 146.148716 286.077389 
L 151.339725 288.489265 
L 156.076039 290.432848 
L 160.829894 292.13853 
L 168.477917 294.592909 
L 174.735132 296.697408 
L 179.576216 298.570937 
L 184.441032 300.711507 
L 189.818413 303.334307 
L 197.192867 307.20799 
L 211.581396 315.082705 
L 234.760655 327.865802 
L 234.760655 327.865802 
" clip-path="url(#p81daae1e20)" style="fill: none; stroke: #1f77b4; stroke-width: 1.5"/>
    <path d="M 80.25981 253.80905 
L 136.094172 284.757246 
L 142.670991 288.137472 
L 147.860816 290.5574 
L 152.595817 292.508155 
L 157.348134 294.220865 
L 164.99345 296.686359 
L 171.248605 298.800042 
L 176.088378 300.680871 
L 180.952164 302.828983 
L 186.3287 305.460327 
L 193.702326 309.345965 
L 208.089739 317.24434 
L 231.26779 330.065899 
L 231.26779 330.065899 
" clip-path="url(#p81daae1e20)" style="fill: none; stroke: #1f77b4; stroke-width: 1.5"/>
    <path d="M 76.779778 255.651512 
L 132.605681 286.687099 
L 139.181471 290.077539 
L 144.370267 292.505347 
L 149.104095 294.463097 
L 153.855013 296.182642 
L 161.497846 298.658917 
L 167.751126 300.781518 
L 172.589734 302.669462 
L 177.452641 304.824947 
L 182.828499 307.46467 
L 190.201532 311.362055 
L 204.588289 319.283713 
L 227.765891 332.143145 
L 227.765891 332.143145 
" clip-path="url(#p81daae1e20)" style="fill: none; stroke: #1f77b4; stroke-width: 1.5"/>
    <path d="M 73.288301 257.443193 
L 129.106335 288.565667 
L 135.681168 291.966255 
L 140.86899 294.401884 
L 145.601694 296.366567 
L 150.351262 298.092874 
L 157.99169 300.579808 
L 164.24316 302.711231 
L 169.080655 304.606223 
L 173.942737 306.769024 
L 179.317978 309.417069 
L 186.690504 313.326136 
L 201.07678 321.270962 
L 224.254223 334.168089 
L 224.254223 334.168089 
" clip-path="url(#p81daae1e20)" style="fill: none; stroke: #1f77b4; stroke-width: 1.5"/>
    <path d="M 69.786377 259.214864 
L 125.596664 290.4242 
L 132.170553 293.834932 
L 137.357412 296.278373 
L 142.089001 298.249977 
L 146.837226 299.983034 
L 154.475258 302.480598 
L 160.724928 304.620823 
L 165.561317 306.52285 
L 170.422585 308.692959 
L 175.797223 311.349324 
L 183.169263 315.270071 
L 197.555102 323.238069 
L 220.73246 336.172904 
L 220.73246 336.172904 
" clip-path="url(#p81daae1e20)" style="fill: none; stroke: #1f77b4; stroke-width: 1.5"/>
    <path d="M 66.274447 260.9804 
L 122.076897 292.276789 
L 128.649832 295.697686 
L 133.835717 298.148955 
L 138.56618 300.127494 
L 143.31305 301.867311 
L 150.948666 304.375522 
L 157.196519 306.524562 
L 162.031793 308.433638 
L 166.892237 310.61107 
L 172.266264 313.275772 
L 179.637808 317.208227 
L 194.023194 325.199456 
L 217.200444 338.172097 
L 217.200444 338.172097 
" clip-path="url(#p81daae1e20)" style="fill: none; stroke: #1f77b4; stroke-width: 1.5"/>
    <path d="M 62.752693 262.745988 
L 118.547119 294.129719 
L 125.119077 297.560816 
L 130.30397 300.01994 
L 135.033288 302.005437 
L 139.778782 303.752037 
L 147.411947 306.27093 
L 153.657957 308.428815 
L 158.492096 310.344964 
L 163.351698 312.529744 
L 168.725095 315.202812 
L 176.096121 319.147018 
L 190.48101 327.161559 
L 213.658087 340.172142 
L 213.658087 340.172142 
" clip-path="url(#p81daae1e20)" style="fill: none; stroke: #1f77b4; stroke-width: 1.5"/>
    <path d="M 59.221175 264.514364 
L 115.007348 295.98577 
L 121.578301 299.427107 
L 126.762177 301.894117 
L 131.490328 303.8866 
L 136.234422 305.64001 
L 143.865097 308.16963 
L 150.10923 310.336396 
L 154.94221 312.259647 
L 159.800948 314.451805 
L 165.173694 317.133274 
L 172.544171 321.089276 
L 187.427637 329.408032 
L 210.105328 342.175903 
L 210.105328 342.175903 
" clip-path="url(#p81daae1e20)" style="fill: none; stroke: #1f77b4; stroke-width: 1.5"/>
    <path d="M 58.210378 265.020315 
L 113.994147 296.516836 
L 120.564808 299.961106 
L 125.748389 302.430376 
L 130.476202 304.42486 
L 135.219891 306.180221 
L 142.849847 308.712915 
L 149.093437 310.882226 
L 153.926082 312.807512 
L 158.784569 315.001784 
L 164.157123 317.685659 
L 171.527438 321.645041 
L 186.410733 329.970736 
L 209.088336 342.749288 
L 209.088336 342.749288 
" clip-path="url(#p81daae1e20)" style="fill: none; stroke: #1f77b4; stroke-width: 1.5"/>
   </g>
  </g>
 </g>
 <defs>
  <clipPath id="p81daae1e20">
   <rect x="9.804012" y="0" width="388.08" height="388.08"/>
  </clipPath>
 </defs>
</svg>
